<svg enable-background="new 0 0 100 100" viewBox="0 0 100 100" xmlns="http://www.w3.org/2000/svg"><g fill="#5453fd"><path d="m76.8 76.5h-65.2c-6.4 0-11.6 5.2-11.6 11.6s5.2 11.6 11.6 11.6h65.2c6.4 0 11.6-5.2 11.6-11.6.1-6.4-5.1-11.6-11.6-11.6zm-5.8 16.9c-2.9 0-5.2-2.3-5.2-5.2s2.3-5.2 5.2-5.2 5.2 2.3 5.2 5.2c.1 2.8-2.3 5.2-5.2 5.2z"/><path d="m90.2 21.4c-1.3-8.7-8.9-15.4-17.9-15.4-.4 0-.8 0-1.3 0-3.6-3.7-8.8-5.8-14-5.8-10.9 0-19.8 8.8-20 19.6-4.8 3.8-7.7 9.6-7.7 15.7 0 11 9 20 20 20h32.6c10 0 18.1-8.1 18.1-18.1 0-6.8-3.8-13-9.8-16zm-8.3 24.8h-32.6c-5.9 0-10.7-4.8-10.7-10.7 0-3.8 2.1-7.4 5.4-9.3l2.7-1.6-.4-3.2c-.1-.4-.1-.9-.1-1.3 0-5.9 4.8-10.7 10.7-10.7 3.4 0 6.6 1.6 8.6 4.3l1.8 2.5 3-.7c.6-.2 1.3-.2 2-.2 4.8 0 8.8 3.9 8.8 8.7l-.1 4 3.4 1c3.7 1.1 6.3 4.6 6.3 8.4 0 4.9-3.9 8.8-8.8 8.8z"/><path d="m76.8 71.8c4.2 0 8 1.6 10.9 4.2l-5.7-17s0 0-.1 0h-32.6c-12.7 0-23.1-10.3-23.4-23h-2c-5.1 0-8.4 2.6-11.4 9.3l-12.2 31.2c2.9-2.9 7-4.7 11.4-4.7z"/></g></svg>