<svg enable-background="new 0 0 100 100" viewBox="0 0 100 100" xmlns="http://www.w3.org/2000/svg"><g fill="#5453fd"><path d="m67.5 94.1h-8.4l-1.2-16h-15.8l-1.2 16h-8.4c-1.6 0-3 1.3-3 3 0 1.6 1.3 3 3 3h35c1.6 0 3-1.3 3-3s-1.3-3-3-3z"/><path d="m88.4 22h-7.2l-21.3 21.3c.5 4.6-1 9.3-4.4 12.7-4.8 4.8-19.9 7.2-26.7 7.9-2 .2-3.5-1.5-3.3-3.3.8-6.7 3.1-21.8 7.9-26.7 3.5-3.5 8.2-5 12.7-4.4l7.5-7.6h-42c-1.7 0-3 1.4-3 3v44.1c0 1.7 1.4 3 3 3h76.7c1.7 0 3-1.4 3-3v-44c.1-1.6-1.3-3-2.9-3z"/><path d="m57.8 37c.8-.8 22.3-22.2 30.6-30.5 1.4-1.5 1.4-3.9-.1-5.3-1.4-1.5-3.8-1.6-5.3-.2-.1.1-30.1 30.2-30.5 30.6 2 1.3 3.9 3.2 5.3 5.4z"/><path d="m51.2 38.2c-3.8-3.8-9.9-3.7-13.6 0-2.4 2.5-4.6 11.8-5.7 19.4 4.3-.6 16.5-2.8 19.6-6 3.5-3.8 3.4-9.7-.3-13.4z"/></g></svg>