<svg enable-background="new 0 0 100 100" viewBox="0 0 100 100" xmlns="http://www.w3.org/2000/svg"><g fill="#5453fd"><path d="m70.5 40.9c-11.3 0-21 6.3-26 15.6l-10.2-5.4c1.9-4.9 1.6-10.5-1-15.1l15.8-11.5c9 7.6 22.8 1.1 22.8-10.6-.1-7.7-6.3-13.9-13.9-13.9-10.3 0-16.9 10.7-12.5 19.8l-15.9 11.6c-11.4-10.2-29.6-2.1-29.6 13.2 0 9.8 8 17.8 17.8 17.8 5.4 0 10.3-2.4 13.5-6.3l11 5.8c-.8 2.7-1.2 5.5-1.2 8.5 0 5.7 1.6 11.1 4.5 15.6.3-1.9.9-3.7 1.6-5.4 1.3-3 3.2-5.8 5.5-8.1l.9-.9c-.5-1.3-.9-2.6-1.1-3.9-.5-3.3-.1-6.8 1.2-9.9 1.3-3.2 3.5-5.8 6.3-7.8 3-2.1 6.5-3.2 10.3-3.2 9.9 0 18 8.1 18 18 0 2.3-.4 4.5-1.2 6.6l.9.9c2.5 2.3 4.4 5.1 5.7 8.2.8 1.9 1.4 3.8 1.7 5.8 2.9-4.6 4.6-10 4.6-15.8 0-16.4-13.2-29.6-29.5-29.6z"/><path d="m65.2 75.8c8 3.7 17.2-2.2 17.2-11 0-6.7-5.4-12.2-12.1-12.2-10.7 0-16.1 13-8.7 20.6-.1 0 1.5 1.6 3.6 2.6z"/><path d="m90 90.7c0 .7 0 1.4-.1 2-5.2 4.6-12 7.4-19.5 7.4s-14.3-2.8-19.5-7.4c-.1-.7-.1-1.3-.1-2 0-5.4 2.2-10.4 5.8-13.9 3.3 3.7 8.1 6.1 13.5 6.1 5.5 0 10.4-2.5 13.7-6.3 3.9 3.4 6.2 8.5 6.2 14.1z"/></g></svg>