<?xml version="1.0" encoding="utf-8"?>
<!-- Generator: Adobe Illustrator 23.0.0, SVG Export Plug-In . SVG Version: 6.00 Build 0)  -->
<svg version="1.1" id="Layer_1" xmlns="http://www.w3.org/2000/svg" xmlns:xlink="http://www.w3.org/1999/xlink" x="0px" y="0px"
	 viewBox="0 0 66 37" style="enable-background:new 0 0 66 37;" xml:space="preserve">
<style type="text/css">
	.st0{fill:#7F8F9C;}
</style>
<g>
	<path class="st0" d="M29.6,12.5c2.5,0,4.5-2.3,4.5-5.2c0-2.9-2-5.2-4.5-5.2s-4.5,2.3-4.5,5.2C25.1,10.2,27.1,12.5,29.6,12.5z"/>
	<path class="st0" d="M50.6,17.4l-8.3-9.6c-0.5-0.6-1.4-0.6-2,0L28.6,21.3l-7.5-8.6c-0.3-0.3-0.6-0.5-1-0.5c-0.4,0-0.7,0.2-1,0.5
		L0,34.8h1.9h56.6h3.7h0.3H66C65.4,34.1,50.6,17.4,50.6,17.4z"/>
</g>
<g>
</g>
<g>
</g>
<g>
</g>
<g>
</g>
<g>
</g>
<g>
</g>
<g>
</g>
<g>
</g>
<g>
</g>
<g>
</g>
<g>
</g>
<g>
</g>
<g>
</g>
<g>
</g>
<g>
</g>
</svg>
