<?xml version="1.0" encoding="utf-8"?>
<!-- Generator: Adobe Illustrator 23.0.0, SVG Export Plug-In . SVG Version: 6.00 Build 0)  -->
<svg version="1.1" id="Layer_1" xmlns="http://www.w3.org/2000/svg" xmlns:xlink="http://www.w3.org/1999/xlink" x="0px" y="0px"
	 viewBox="0 0 120 140" style="enable-background:new 0 0 120 140;" xml:space="preserve">
<style type="text/css">
	.st0{fill:url(#SVGID_1_);}
	.st1{fill:#FF7D73;}
	.st2{fill:#FF5850;}
</style>
<g>
	<linearGradient id="SVGID_1_" gradientUnits="userSpaceOnUse" x1="81.8434" y1="47.6074" x2="-33.7717" y2="140.4499">
		<stop  offset="0" style="stop-color:#004FFF"/>
		<stop  offset="1" style="stop-color:#0033C1"/>
	</linearGradient>
	<path class="st0" d="M112.9,80.5L112.9,80.5c0.1-0.4,0.1-0.9,0.1-1.3c0-3.8-3.1-6.9-6.9-6.9c-2.9,0-5.4,1.8-6.4,4.4l0,0l-0.1,0.4
		c-0.1,0.3-0.1,0.5-0.2,0.8c-4.7,18-18.8,34.2-37.1,42.5l1.4-12.8c0.1-0.7-0.2-1.4-0.6-2c-0.5-0.5-1.2-0.8-1.9-0.8c0,0-5.1,0-5.1,0
		c-20.1,0-36.5-12.9-40.9-32.1c-2.6-11.2-0.6-22.7,5.5-32.4c4.6-7.3,11.1-12.9,18.8-16.4c0.5-0.1,0.9-0.3,1.3-0.6l0.2-0.1l0,0
		c2-1.2,3.4-3.4,3.4-6c0-3.8-3.1-7-7-7c-0.7,0-1.3,0.1-2,0.3l0-0.1l-0.7,0.3C23.9,15.3,14.9,23,8.7,32.9C0.7,45.8-1.9,61,1.5,75.8
		c5.3,22.9,23.7,39.4,47,42.4l-2.4,21.7l9.8-2.6c18.2-4.8,34.8-16.7,45.8-32.5c5.1-7.4,8.8-15.3,11-23.6c0-0.1,0-0.1,0-0.2
		L112.9,80.5z"/>
	<g>
		<path class="st1" d="M119.6,49.8c-0.1-0.5-0.5-0.9-1.1-1l-5.7-1.1l-1.8-5.5c-0.2-0.6-0.7-0.9-1.3-0.9c-0.5,0-0.9,0.3-1.2,0.7
			l-2.8,5.1l-5.8,0c-0.5,0-1,0.3-1.3,0.8c-0.2,0.5-0.1,1.1,0.3,1.5l4,4.2l-1.8,5.5c-0.1,0.4-0.1,0.9,0.2,1.2
			c0.3,0.4,0.7,0.6,1.1,0.6c0.2,0,0.4,0,0.6-0.1l5.2-2.5l4.7,3.4c0.2,0.2,0.5,0.3,0.8,0.3c0.4,0,0.8-0.2,1-0.5
			c0.3-0.3,0.4-0.7,0.3-1.1l-0.7-5.7l4.7-3.4C119.6,50.9,119.8,50.4,119.6,49.8z"/>
		<path class="st1" d="M74.4,8.7c-0.1-0.5-0.5-1-1.1-1.1l-5.7-1.1L65.9,1c-0.2-0.6-0.7-1-1.3-1c-0.5,0-1,0.3-1.2,0.7l-2.8,5.1
			l-5.8-0.1c-0.6,0-1.1,0.3-1.3,0.8c-0.2,0.5-0.1,1.1,0.3,1.5l3.9,4.3l-1.9,5.5c-0.1,0.4-0.1,0.9,0.2,1.3c0.3,0.4,0.7,0.6,1.1,0.6
			c0.2,0,0.4,0,0.6-0.1l5.3-2.4l4.7,3.5c0.2,0.2,0.5,0.3,0.8,0.3c0.4,0,0.8-0.2,1-0.5c0.3-0.3,0.4-0.7,0.3-1.1l-0.7-5.8l4.7-3.4
			C74.3,9.8,74.5,9.3,74.4,8.7z"/>
		<path class="st2" d="M105.7,27.4l-5-5.3l2.2-6.9c0.2-0.5,0.1-1-0.2-1.4c-0.3-0.4-0.8-0.7-1.3-0.7c-0.2,0-0.5,0.1-0.7,0.2l-6.6,3.1
			l-5.8-4.3c-0.3-0.2-0.6-0.3-0.9-0.3c-0.5,0-0.9,0.2-1.2,0.5c-0.3,0.3-0.4,0.8-0.4,1.2l0.9,7.2L81,25.1c-0.5,0.4-0.7,1-0.6,1.6
			c0.1,0.6,0.6,1.1,1.2,1.2l7.1,1.4l2.2,6.9c0.2,0.6,0.8,1.1,1.5,1.1c0.6,0,1.1-0.3,1.4-0.8l3.5-6.4l7.2,0c0.6,0,1.2-0.4,1.4-0.9
			C106.2,28.6,106.1,27.9,105.7,27.4z"/>
	</g>
</g>
</svg>
