<?xml version="1.0" encoding="utf-8"?>
<!-- Generator: Adobe Illustrator 23.0.0, SVG Export Plug-In . SVG Version: 6.00 Build 0)  -->
<svg version="1.1" id="Layer_1" xmlns="http://www.w3.org/2000/svg" xmlns:xlink="http://www.w3.org/1999/xlink" x="0px" y="0px"
	 viewBox="0 0 498 138" style="enable-background:new 0 0 498 138;" xml:space="preserve">
<style type="text/css">
	.st0{fill:url(#SVGID_1_);}
	.st1{fill:#FF7D73;}
	.st2{fill:#FF5850;}
	.st3{fill:#424C5E;}
</style>
<g>
	<g>
		<linearGradient id="SVGID_1_" gradientUnits="userSpaceOnUse" x1="82.0122" y1="46.9461" x2="-31.9969" y2="138.4989">
			<stop  offset="0" style="stop-color:#004FFF"/>
			<stop  offset="1" style="stop-color:#0033C1"/>
		</linearGradient>
		<path class="st0" d="M112.6,79.4L112.6,79.4c0.1-0.4,0.1-0.9,0.1-1.3c0-3.8-3.1-6.8-6.8-6.8c-2.9,0-5.4,1.8-6.3,4.4l0,0L99.4,76
			c-0.1,0.2-0.1,0.5-0.2,0.8c-4.6,17.8-18.5,33.7-36.6,41.9l1.4-12.6c0.1-0.7-0.1-1.4-0.6-1.9c-0.5-0.5-1.1-0.8-1.9-0.8
			c0,0-5,0-5.1,0c-19.8,0-36-12.7-40.4-31.6c-2.5-11-0.6-22.4,5.4-32C26,32.5,32.4,27,40.1,23.5c0.4-0.1,0.9-0.3,1.3-0.6l0.2-0.1
			l0,0c2-1.2,3.3-3.4,3.3-5.9c0-3.8-3.1-6.9-6.9-6.9c-0.7,0-1.3,0.1-1.9,0.3l0-0.1l-0.7,0.3C24.8,15.1,16,22.7,9.9,32.4
			C2,45.1-0.6,60.2,2.8,74.8c5.2,22.6,23.3,38.9,46.3,41.8L46.8,138l9.7-2.6c17.9-4.8,34.4-16.5,45.2-32c5.1-7.3,8.7-15.1,10.8-23.3
			c0-0.1,0-0.1,0-0.2L112.6,79.4z"/>
		<g>
			<path class="st1" d="M119.3,49.1c-0.1-0.5-0.5-0.9-1.1-1l-5.6-1.1l-1.7-5.4c-0.2-0.6-0.7-0.9-1.3-0.9c-0.5,0-0.9,0.3-1.2,0.7
				l-2.7,5l-5.7,0c-0.5,0-1,0.3-1.2,0.8c-0.2,0.5-0.1,1.1,0.3,1.5l3.9,4.2l-1.8,5.4c-0.1,0.4-0.1,0.9,0.2,1.2
				c0.3,0.4,0.7,0.6,1.1,0.6c0.2,0,0.4,0,0.6-0.1l5.1-2.4l4.6,3.4c0.2,0.2,0.5,0.3,0.8,0.3c0.4,0,0.8-0.2,1-0.5
				c0.3-0.3,0.4-0.7,0.3-1.1l-0.7-5.7l4.6-3.3C119.2,50.2,119.4,49.7,119.3,49.1z"/>
			<path class="st1" d="M74.6,8.6c-0.1-0.5-0.5-1-1.1-1.1L68,6.4L66.3,1c-0.2-0.6-0.7-1-1.3-1c-0.5,0-0.9,0.3-1.2,0.7l-2.8,5
				l-5.7-0.1c-0.5,0-1,0.3-1.3,0.8c-0.2,0.5-0.1,1.1,0.2,1.5l3.9,4.2l-1.8,5.4c-0.1,0.4-0.1,0.9,0.2,1.2c0.3,0.4,0.7,0.6,1.1,0.6
				c0.2,0,0.4,0,0.6-0.1l5.2-2.4l4.6,3.4c0.2,0.2,0.5,0.3,0.8,0.3c0.4,0,0.8-0.2,1-0.5c0.3-0.3,0.4-0.7,0.3-1.1l-0.7-5.7l4.7-3.3
				C74.5,9.7,74.8,9.2,74.6,8.6z"/>
			<path class="st2" d="M105.5,27.1l-4.9-5.2l2.2-6.8c0.2-0.5,0.1-1-0.2-1.4c-0.3-0.4-0.8-0.6-1.2-0.6c-0.2,0-0.5,0.1-0.7,0.1
				l-6.5,3L88.5,12c-0.3-0.2-0.6-0.3-0.9-0.3c-0.4,0-0.9,0.2-1.2,0.5c-0.3,0.3-0.4,0.8-0.4,1.2l0.9,7.1l-5.8,4.2
				c-0.5,0.4-0.7,1-0.6,1.6c0.1,0.6,0.6,1.1,1.2,1.2l7,1.3l2.2,6.8c0.2,0.6,0.8,1.1,1.5,1.1c0.6,0,1.1-0.3,1.3-0.8l3.5-6.3l7.1,0
				c0.6,0,1.2-0.4,1.4-0.9C106.1,28.2,106,27.5,105.5,27.1z"/>
		</g>
	</g>
	<g>
		<path class="st3" d="M173.4,38.4c8.7,0,15.3,1.6,19.9,4.8c4.6,3.2,6.9,8,6.9,14.5c0,8.1-4,13.7-12,16.5c1.1,1.3,2.3,2.9,3.7,4.8
			c1.4,1.9,2.8,4,4.2,6.2c1.4,2.2,2.8,4.5,4.2,6.8c1.3,2.3,2.5,4.6,3.6,6.9h-12.2c-1.1-2.1-2.3-4.2-3.5-6.3
			c-1.3-2.1-2.6-4.2-3.9-6.1c-1.3-2-2.6-3.9-3.9-5.6c-1.3-1.8-2.5-3.3-3.6-4.7c-0.8,0.1-1.5,0.1-2.1,0.1c-0.6,0-1.1,0-1.6,0h-5.3V99
			h-10.9V39.8c2.7-0.6,5.5-1,8.5-1.2C168.4,38.5,171.1,38.4,173.4,38.4z M174.2,47.8c-2.3,0-4.4,0.1-6.4,0.3v19.4h4.8
			c2.7,0,5-0.1,7-0.4c2-0.3,3.7-0.8,5.1-1.6c1.4-0.7,2.4-1.8,3.1-3c0.7-1.3,1-2.9,1-4.8c0-1.8-0.3-3.4-1-4.7c-0.7-1.3-1.7-2.3-3-3
			c-1.3-0.7-2.8-1.3-4.6-1.6C178.3,48,176.4,47.8,174.2,47.8z"/>
		<path class="st3" d="M209.3,76.6c0-4,0.6-7.5,1.8-10.5c1.2-3,2.8-5.5,4.7-7.5c2-2,4.2-3.5,6.8-4.5c2.5-1,5.1-1.5,7.8-1.5
			c6.2,0,11.1,1.9,14.6,5.8c3.5,3.9,5.2,9.6,5.2,17.3c0,0.6,0,1.2,0,1.9c0,0.7-0.1,1.4-0.1,1.9h-29.9c0.3,3.6,1.6,6.5,3.9,8.4
			c2.3,2,5.6,3,9.9,3c2.5,0,4.9-0.2,7-0.7c2.1-0.5,3.8-1,5-1.5l1.4,8.6c-0.6,0.3-1.4,0.6-2.4,0.9c-1,0.3-2.2,0.6-3.5,0.9
			c-1.3,0.3-2.7,0.5-4.2,0.6c-1.5,0.2-3,0.3-4.6,0.3c-4,0-7.4-0.6-10.4-1.8c-2.9-1.2-5.4-2.8-7.3-4.9c-1.9-2.1-3.3-4.6-4.2-7.4
			C209.8,83.1,209.3,80,209.3,76.6z M239.7,71.9c0-1.4-0.2-2.8-0.6-4.1c-0.4-1.3-1-2.4-1.8-3.4c-0.8-1-1.7-1.7-2.9-2.3
			c-1.1-0.5-2.5-0.8-4-0.8c-1.6,0-3,0.3-4.2,0.9c-1.2,0.6-2.2,1.4-3.1,2.4c-0.8,1-1.5,2.1-1.9,3.4c-0.5,1.3-0.8,2.6-1,3.9H239.7z"/>
		<path class="st3" d="M272.9,99C270,93,267,86.2,264,78.5c-3-7.7-5.8-16-8.3-24.8h11.2c0.6,2.5,1.4,5.3,2.2,8.2
			c0.8,2.9,1.7,5.8,2.7,8.7c1,2.9,1.9,5.7,3,8.5c1,2.7,2,5.2,2.8,7.4c0.9-2.2,1.8-4.7,2.8-7.4c1-2.7,2-5.6,2.9-8.5
			c1-2.9,1.9-5.8,2.7-8.7c0.9-2.9,1.6-5.6,2.3-8.2h10.8c-2.5,8.8-5.3,17.1-8.3,24.8c-3,7.7-6,14.5-8.9,20.5H272.9z"/>
		<path class="st3" d="M318.5,40.5c0,2-0.6,3.5-1.9,4.7c-1.3,1.2-2.8,1.7-4.5,1.7c-1.8,0-3.3-0.6-4.6-1.7c-1.3-1.2-1.9-2.7-1.9-4.7
			c0-2,0.6-3.6,1.9-4.8c1.3-1.2,2.8-1.7,4.6-1.7c1.7,0,3.2,0.6,4.5,1.7C317.8,36.8,318.5,38.4,318.5,40.5z M317.3,99h-10.5V53.7
			h10.5V99z"/>
		<path class="st3" d="M328.2,76.6c0-4,0.6-7.5,1.8-10.5c1.2-3,2.8-5.5,4.7-7.5c2-2,4.2-3.5,6.8-4.5c2.5-1,5.1-1.5,7.8-1.5
			c6.2,0,11.1,1.9,14.6,5.8c3.5,3.9,5.2,9.6,5.2,17.3c0,0.6,0,1.2,0,1.9c0,0.7-0.1,1.4-0.1,1.9H339c0.3,3.6,1.6,6.5,3.9,8.4
			c2.3,2,5.6,3,9.9,3c2.5,0,4.9-0.2,7-0.7c2.1-0.5,3.8-1,5-1.5l1.4,8.6c-0.6,0.3-1.4,0.6-2.4,0.9c-1,0.3-2.2,0.6-3.5,0.9
			c-1.3,0.3-2.7,0.5-4.2,0.6c-1.5,0.2-3,0.3-4.6,0.3c-4,0-7.4-0.6-10.4-1.8c-2.9-1.2-5.4-2.8-7.3-4.9c-1.9-2.1-3.3-4.6-4.2-7.4
			C328.6,83.1,328.2,80,328.2,76.6z M358.6,71.9c0-1.4-0.2-2.8-0.6-4.1c-0.4-1.3-1-2.4-1.8-3.4c-0.8-1-1.7-1.7-2.9-2.3
			c-1.1-0.5-2.5-0.8-4-0.8c-1.6,0-3,0.3-4.2,0.9c-1.2,0.6-2.2,1.4-3.1,2.4c-0.8,1-1.5,2.1-1.9,3.4c-0.5,1.3-0.8,2.6-1,3.9H358.6z"/>
		<path class="st3" d="M407.2,70.5c-1.3,5.1-2.8,10-4.3,14.8c-1.5,4.8-3,9.4-4.5,13.6h-8.6c-1.2-2.7-2.4-5.7-3.6-9.1
			c-1.3-3.4-2.5-7-3.8-10.9c-1.3-3.9-2.5-7.9-3.8-12.2c-1.3-4.3-2.5-8.6-3.7-13.1h11.1c0.5,2.4,1.1,5,1.8,7.8
			c0.7,2.8,1.4,5.7,2.2,8.6c0.8,2.9,1.5,5.8,2.4,8.5c0.8,2.8,1.6,5.3,2.4,7.6c0.9-2.7,1.7-5.4,2.6-8.2c0.8-2.8,1.6-5.7,2.4-8.5
			c0.8-2.8,1.5-5.6,2.1-8.3c0.7-2.7,1.3-5.2,1.8-7.6h8.1c0.5,2.4,1.1,4.9,1.7,7.6c0.6,2.7,1.3,5.4,2,8.3c0.7,2.8,1.5,5.7,2.3,8.5
			c0.8,2.8,1.7,5.6,2.5,8.2c0.8-2.3,1.5-4.8,2.3-7.6c0.8-2.8,1.6-5.6,2.4-8.5c0.8-2.9,1.5-5.8,2.2-8.6c0.7-2.8,1.3-5.4,1.8-7.8h10.8
			c-1.2,4.4-2.5,8.8-3.7,13.1c-1.3,4.3-2.5,8.3-3.8,12.2c-1.3,3.9-2.5,7.5-3.8,10.9c-1.3,3.4-2.5,6.4-3.7,9.1h-8.5
			c-1.5-4.3-3-8.8-4.6-13.6C410,80.5,408.5,75.6,407.2,70.5z"/>
		<path class="st3" d="M483.8,99c-1.7-3.1-3.8-6.6-6.3-10.4c-2.5-3.8-5.2-7.4-8-11c-1.1,1.4-2.4,3-3.7,4.9c-1.3,1.9-2.7,3.9-4,5.8
			c-1.3,2-2.6,3.9-3.7,5.8c-1.1,1.9-2.1,3.5-2.8,4.8h-12.5c2.7-4.8,5.7-9.7,9.2-14.8c3.5-5.1,7.3-10.3,11.3-15.9L443.6,39h13
			l13.1,19.7L482.9,39h12.5l-19.4,29c4.5,5.9,8.5,11.4,11.9,16.6c3.5,5.2,6.4,10,8.7,14.3H483.8z"/>
	</g>
</g>
</svg>
