<svg enable-background="new 0 0 512 512" viewBox="0 0 512 512" xmlns="http://www.w3.org/2000/svg"><circle cx="33.999" cy="477.991" fill="#78d2fa" r="23.999"/><circle cx="478.001" cy="477.991" fill="#f5c86e" r="23.999"/><circle cx="33.999" cy="34.009" fill="#ff5a5a" r="23.999"/><circle cx="478.001" cy="34.009" fill="#a5dc69" r="23.999"/><path d="m140.964 99.54 30.464 18.313 46.674-19.343 8.596-34.503h58.584l8.596 34.503 46.674 19.343 30.464-18.313 41.433 41.434-18.312 30.464 19.343 46.674 34.502 8.596v58.584l-34.502 8.595-19.343 46.675 18.312 30.463-41.433 41.434-30.464-18.312-46.674 19.343-8.596 34.502h-58.584l-8.596-34.502-46.674-19.343-30.464 18.312-41.433-41.434 18.312-30.463-19.343-46.675-34.503-8.595v-58.584l34.503-8.596 19.343-46.674-18.312-30.464z" fill="#6e87f5"/><circle cx="255.99" cy="256" fill="#fff" r="117.995"/><path d="m421.02 365.874-15.714-26.142 15.482-37.36 29.612-7.378c4.456-1.109 7.583-5.111 7.583-9.703v-19.291h43.998c5.523 0 10-4.478 10-10 0-5.523-4.477-10-10-10h-43.998v-19.292c0-4.592-3.127-8.593-7.583-9.704l-29.612-7.377-15.482-37.36 15.714-26.142c2.366-3.935 1.747-8.976-1.5-12.223l-41.434-41.434c-3.248-3.247-8.289-3.865-12.223-1.5l-26.142 15.714-37.36-15.482-7.377-29.612c-1.11-4.456-5.112-7.583-9.704-7.583h-19.29v-43.996c0-5.523-4.477-10-10-10s-10 4.477-10 10v43.998h-19.292c-4.592 0-8.593 3.127-9.704 7.583l-7.377 29.612-37.36 15.482-26.142-15.714c-3.937-2.366-8.976-1.748-12.223 1.5l-41.434 41.434c-3.247 3.247-3.865 8.288-1.5 12.223l15.714 26.142-15.482 37.36-29.612 7.377c-4.456 1.11-7.583 5.112-7.583 9.704v19.29h-43.995c-5.523 0-10 4.477-10 10 0 5.522 4.477 10 10 10h43.998v19.292c0 4.592 3.127 8.594 7.583 9.703l29.612 7.378 15.482 37.36-15.715 26.141c-2.366 3.936-1.747 8.977 1.5 12.224l41.434 41.434c3.247 3.246 8.288 3.864 12.224 1.499l26.141-15.714 37.36 15.482 7.377 29.611c1.11 4.456 5.112 7.583 9.704 7.583h19.291v43.998c0 5.522 4.477 10 10 10s10-4.478 10-10v-43.998h19.292c4.592 0 8.593-3.127 9.704-7.583l7.377-29.611 37.36-15.482 26.141 15.714c3.936 2.365 8.976 1.747 12.224-1.499l41.434-41.434c3.243-3.248 3.862-8.289 1.497-12.224zm-35.453-20.16 14.286 23.766-30.383 30.384-23.766-14.286c-2.719-1.635-6.051-1.883-8.981-.668l-46.674 19.343c-2.929 1.214-5.108 3.744-5.875 6.821l-6.707 26.92h-42.956l-6.707-26.92c-.767-3.077-2.946-5.607-5.875-6.821l-46.674-19.343c-2.93-1.215-6.262-.967-8.981.668l-23.766 14.286-30.383-30.384 14.286-23.766c1.634-2.719 1.881-6.051.667-8.98l-19.342-46.674c-1.214-2.929-3.745-5.108-6.821-5.875l-26.92-6.708v-42.956l26.921-6.707c3.076-.767 5.607-2.946 6.821-5.875l19.342-46.674c1.214-2.93.966-6.262-.667-8.98l-14.286-23.766 30.383-30.383 23.766 14.286c2.718 1.634 6.05 1.882 8.98.667l46.674-19.342c2.929-1.214 5.108-3.745 5.875-6.821l6.707-26.921h42.956l6.707 26.921c.767 3.076 2.946 5.607 5.875 6.821l46.674 19.342c2.931 1.214 6.262.966 8.98-.667l23.766-14.286 30.383 30.383-14.286 23.766c-1.634 2.718-1.881 6.05-.667 8.98l19.342 46.674c1.214 2.929 3.745 5.108 6.821 5.875l26.921 6.707v42.956l-26.921 6.708c-3.076.767-5.607 2.946-6.821 5.875l-19.342 46.674c-1.214 2.93-.966 6.262.668 8.98z"/><path d="m300.089 135.808c-5.184-1.9-10.93.758-12.832 5.942-1.903 5.185.758 10.93 5.942 12.833 42.34 15.539 70.787 56.296 70.787 101.418 0 59.55-48.447 107.996-107.996 107.996s-107.996-48.447-107.996-107.997c0-42.696 25.228-81.47 64.269-98.78 5.049-2.238 7.327-8.146 5.088-13.195-2.238-5.048-8.147-7.327-13.194-5.088-46.266 20.513-76.162 66.463-76.162 117.062 0 70.576 57.418 127.995 127.995 127.995s127.995-57.418 127.995-127.994c0-53.474-33.716-101.776-83.896-120.192z"/><path d="m255.99 148.004.471.001h.03c5.509 0 9.983-4.458 10-9.971.016-5.523-4.448-10.013-9.971-10.029l-.53-.001c-5.523 0-10 4.477-10 10s4.477 10 10 10z"/><path d="m335.654 284.505v-58.285c0-5.523-4.477-10-10-10s-10 4.477-10 10v58.285c0 5.522 4.477 10 10 10s10-4.478 10-10z"/><path d="m246.558 226.22v19.938 13.642 24.705c0 5.522 4.477 10 10 10s10-4.478 10-10v-14.705h10.603c13.95 0 25.3-11.351 25.3-25.3v-2.979c0-13.95-11.35-25.3-25.3-25.3h-20.602c-5.524 0-10.001 4.476-10.001 9.999zm20 10h10.603c2.923 0 5.301 2.378 5.301 5.301v2.979c0 2.923-2.378 5.301-5.301 5.301h-10.603v-3.642z"/><path d="m200.992 216.221c-3.999 0-7.613 2.382-9.19 6.057l-25.666 59.814c-2.178 5.075.171 10.955 5.247 13.132s10.955-.171 13.132-5.246l16.476-38.398 16.477 38.398c1.626 3.79 5.316 6.06 9.194 6.06 1.315 0 2.653-.262 3.938-.813 5.075-2.178 7.424-8.058 5.246-13.132l-25.666-59.814c-1.575-3.677-5.189-6.058-9.188-6.058z"/><path d="m416.768 105.222c2.559 0 5.119-.976 7.071-2.929l38.251-38.252c4.751 2.527 10.166 3.966 15.911 3.966 18.747 0 33.999-15.251 33.999-33.999s-15.251-33.998-33.999-33.998-33.999 15.251-33.999 33.999c0 5.736 1.433 11.141 3.952 15.884l-38.259 38.258c-3.905 3.905-3.905 10.237 0 14.142 1.954 1.953 4.514 2.929 7.073 2.929zm61.233-85.213c7.72 0 13.999 6.28 13.999 13.999s-6.28 13.999-13.999 13.999c-7.72 0-13.999-6.28-13.999-13.999s6.28-13.999 13.999-13.999z"/><path d="m88.142 409.706-38.244 38.246c-4.748-2.523-10.158-3.959-15.898-3.959-18.749 0-34 15.251-34 33.998s15.251 33.999 33.999 33.999 33.999-15.251 33.999-33.999c0-5.741-1.436-11.151-3.959-15.898l38.245-38.246c3.905-3.905 3.905-10.237 0-14.142-3.906-3.903-10.238-3.903-14.142.001zm-54.143 82.285c-7.72 0-13.999-6.28-13.999-13.999s6.28-13.999 13.999-13.999 13.999 6.28 13.999 13.999-6.28 13.999-13.999 13.999z"/><path d="m416.764 406.774c-2.63 0-5.21 1.069-7.07 2.93-1.86 1.859-2.93 4.439-2.93 7.07 0 2.63 1.07 5.21 2.93 7.069 1.86 1.86 4.44 2.931 7.07 2.931 2.64 0 5.21-1.07 7.08-2.931 1.86-1.859 2.92-4.43 2.92-7.069 0-2.631-1.06-5.211-2.92-7.07-1.871-1.86-4.45-2.93-7.08-2.93z"/><path d="m478.001 443.993c-5.746 0-11.161 1.438-15.911 3.966l-16.894-16.894c-3.905-3.903-10.237-3.904-14.141 0-3.905 3.905-3.906 10.237 0 14.142l16.9 16.901c-2.518 4.745-3.952 10.15-3.952 15.884 0 18.747 15.251 33.999 33.999 33.999s33.998-15.251 33.998-33.999-15.251-33.999-33.999-33.999zm0 47.998c-7.72 0-13.999-6.28-13.999-13.999s6.28-13.999 13.999-13.999c7.72 0 13.999 6.28 13.999 13.999s-6.279 13.999-13.999 13.999z"/><path d="m33.999 68.007c5.741 0 11.151-1.436 15.898-3.959l38.245 38.244c1.953 1.953 4.512 2.929 7.071 2.929s5.119-.976 7.071-2.929c3.905-3.905 3.905-10.237 0-14.142l-38.246-38.243c2.523-4.748 3.959-10.158 3.959-15.898 0-18.747-15.251-33.999-33.999-33.999s-33.998 15.251-33.998 33.999 15.251 33.998 33.999 33.998zm0-47.998c7.72 0 13.999 6.28 13.999 13.999s-6.28 13.999-13.999 13.999-13.999-6.28-13.999-13.999 6.279-13.999 13.999-13.999z"/></svg>