<svg enable-background="new 0 0 20 20" viewBox="0 0 20 20" xmlns="http://www.w3.org/2000/svg"><g fill="#597dfc"><circle cx="17.6" cy="16.3" r=".9"/><path d="m14.6 15.5c-.4 0-.8.3-.8.8 0 .4.3.8.8.8.4 0 .8-.3.8-.8 0-.5-.4-.8-.8-.8z"/><path d="m19.6 17.6c-.2 0-.4.2-.4.4 0 .2.2.4.4.4s.4-.2.4-.4c0-.2-.2-.4-.4-.4z"/><circle cx="16.2" cy="18.2" r=".5"/><path d="m7.3 5h.3c.6 0 1-.5 1-1s-.5-1-1-1-1 .5-1 1c0 .4.2.7.6.9 0 .1 0 .1.1.1z"/><path d="m14.1 11.6c.7-1.2 1.1-2.5 1.1-4 0-3.7-2.6-6.7-6.1-7.4-.5-.1-1-.2-1.6-.2-4.1 0-7.5 3.4-7.5 7.6 0 3.5 2.4 6.5 5.7 7.4-.5-.3-4.2-2.7-4.1-7.6 0-3.1 2.7-5.7 5.8-5.8 3.4-.1 6.2 2.6 6.2 6 0 2.5-1.5 4.6-3.7 5.5-.5.2-2.1.5-3.4-1.3-.9-1.3-.8-2.7-.7-3.1.1-.8.7-1.4 1.4-1.4h.1c.9.1 1.5.7 1.4 1.6 0 .7-.2 1.4-.5 2v.1c0 .1-.1.2-.1.3s-.1.2 0 .3c.1.2.3.4.6.4.1 0 .2-.1.3-.2.7-1 1.1-2 1.1-3.2 0-.7-.3-1.4-.7-1.9-.5-.5-1.2-.8-2-.8-.1 0-.1 0-.2 0-.5 0-.8.1-1.2.2s-1.7.5-1.8 2.5c-.1 1.1 0 2.9 1.6 4.6l.6.6c.3.2.5.4.8.5.1.1.3.2.4.2.3.1.6.2.9.2.7.1 1.3 0 2-.3.5-.2 1-.5 1.4-.8l1.2 1.2c.3-.3.8-.5 1.2-.5.8 0 1.4.5 1.7 1.1.2-.4.5-.7.9-.9z"/></g></svg>