<svg enable-background="new 0 0 1920 900" viewBox="0 0 1920 900" xmlns="http://www.w3.org/2000/svg"><path d="m0 0h1920v900h-1920z" fill="#597dfc"/><g fill="#fff"><path d="m1412.7 852.6h44v44h-44z" opacity=".1" stroke="#fff" stroke-width="3"/><g enable-background="new" opacity=".1"><circle cx="207" cy="533.1" r="5"/><circle cx="237" cy="533.1" r="5"/><circle cx="267" cy="533.1" r="5"/><circle cx="297" cy="533.1" r="5"/><circle cx="327" cy="533.1" r="5"/><circle cx="357" cy="533.1" r="5"/><circle cx="207" cy="563.1" r="5"/><circle cx="237" cy="563.1" r="5"/><circle cx="267" cy="563.1" r="5"/><circle cx="297" cy="563.1" r="5"/><circle cx="327" cy="563.1" r="5"/><circle cx="357" cy="563.1" r="5"/><circle cx="207" cy="593.1" r="5"/><circle cx="237" cy="593.1" r="5"/><circle cx="267" cy="593.1" r="5"/><circle cx="297" cy="593.1" r="5"/><circle cx="327" cy="593.1" r="5"/><circle cx="357" cy="593.1" r="5"/><circle cx="207" cy="623.1" r="5"/><circle cx="237" cy="623.1" r="5"/><circle cx="267" cy="623.1" r="5"/><circle cx="297" cy="623.1" r="5"/><circle cx="327" cy="623.1" r="5"/><circle cx="357" cy="623.1" r="5"/><circle cx="207" cy="653.1" r="5"/><circle cx="237" cy="653.1" r="5"/><circle cx="267" cy="653.1" r="5"/><circle cx="297" cy="653.1" r="5"/><circle cx="327" cy="653.1" r="5"/><circle cx="357" cy="653.1" r="5"/><circle cx="207" cy="683.1" r="5"/><circle cx="237" cy="683.1" r="5"/><circle cx="267" cy="683.1" r="5"/><circle cx="297" cy="683.1" r="5"/><circle cx="327" cy="683.1" r="5"/><circle cx="357" cy="683.1" r="5"/></g><g enable-background="new" opacity=".1"><circle cx="1352" cy="355.1" r="5"/><circle cx="1382" cy="355.1" r="5"/><circle cx="1412" cy="355.1" r="5"/><circle cx="1442" cy="355.1" r="5"/><circle cx="1472" cy="355.1" r="5"/><circle cx="1502" cy="355.1" r="5"/><circle cx="1352" cy="385.1" r="5"/><circle cx="1382" cy="385.1" r="5"/><circle cx="1412" cy="385.1" r="5"/><circle cx="1442" cy="385.1" r="5"/><circle cx="1472" cy="385.1" r="5"/><circle cx="1502" cy="385.1" r="5"/><circle cx="1352" cy="415.1" r="5"/><circle cx="1382" cy="415.1" r="5"/><circle cx="1412" cy="415.1" r="5"/><circle cx="1442" cy="415.1" r="5"/><circle cx="1472" cy="415.1" r="5"/><circle cx="1502" cy="415.1" r="5"/><circle cx="1352" cy="445.1" r="5"/><circle cx="1382" cy="445.1" r="5"/><circle cx="1412" cy="445.1" r="5"/><circle cx="1442" cy="445.1" r="5"/><circle cx="1472" cy="445.1" r="5"/><circle cx="1502" cy="445.1" r="5"/><circle cx="1352" cy="475.1" r="5"/><circle cx="1382" cy="475.1" r="5"/><circle cx="1412" cy="475.1" r="5"/><circle cx="1442" cy="475.1" r="5"/><circle cx="1472" cy="475.1" r="5"/><circle cx="1502" cy="475.1" r="5"/><circle cx="1352" cy="505.1" r="5"/><circle cx="1382" cy="505.1" r="5"/><circle cx="1412" cy="505.1" r="5"/><circle cx="1442" cy="505.1" r="5"/><circle cx="1472" cy="505.1" r="5"/><circle cx="1502" cy="505.1" r="5"/></g><path clip-rule="evenodd" d="m1667 611.1 42 .1-21.1 36.9z" fill-rule="evenodd" opacity=".1"/><path clip-rule="evenodd" d="m238 155.1-53-.1 26.6-45.9z" fill-rule="evenodd" opacity=".1"/><path d="m151 162.1h66v10h-66z" opacity=".1"/><path d="m118 853.1h66v10h-66z" opacity=".1"/></g><circle cx="1736" cy="152.1" fill="none" opacity=".1" r="27" stroke="#fff" stroke-width="10"/><circle cx="554" cy="751.1" fill="none" opacity=".2" r="20" stroke="#fff" stroke-width="10"/><path d="m1734 147.1h46v10h-46z" fill="#fff" opacity=".1"/></svg>