<svg xmlns="http://www.w3.org/2000/svg" xmlns:xlink="http://www.w3.org/1999/xlink" width="222.008" height="50.326" viewBox="0 0 222.008 50.326"><defs><style>.a{fill:#32375e;}.b{fill:#00e8d7;}.c{fill:url(#a);}.d{fill:#7664f9;}.e{fill:#43efde;}.f{fill:url(#b);}.g{fill:url(#c);}.h{fill:url(#d);}</style><linearGradient id="a" x1="0.276" y1="0.993" x2="0.768" y2="-0.021" gradientUnits="objectBoundingBox"><stop offset="0" stop-color="#211f84"/><stop offset="0.636" stop-color="#3b38cd"/><stop offset="1" stop-color="#4844f2"/></linearGradient><linearGradient id="b" x1="6.517" y1="3.684" x2="191.827" y2="24.152" gradientUnits="objectBoundingBox"><stop offset="0" stop-color="#211f84"/><stop offset="0.197" stop-color="#222088"/><stop offset="0.387" stop-color="#262493"/><stop offset="0.573" stop-color="#2d2ba7"/><stop offset="0.758" stop-color="#3734c2"/><stop offset="0.94" stop-color="#4340e5"/><stop offset="1" stop-color="#4844f2"/></linearGradient><linearGradient id="c" x1="0.031" y1="0.23" x2="0.988" y2="0.853" gradientUnits="objectBoundingBox"><stop offset="0" stop-color="#4b4bf9"/><stop offset="0.25" stop-color="#4a48f6" stop-opacity="0.749"/><stop offset="1" stop-color="#4844f2" stop-opacity="0"/></linearGradient><linearGradient id="d" x1="0.211" y1="0.145" x2="0.63" y2="0.636" gradientUnits="objectBoundingBox"><stop offset="0" stop-color="#4b4bf9"/><stop offset="0.277" stop-color="#4947f5" stop-opacity="0.722"/><stop offset="1" stop-color="#4844f2" stop-opacity="0"/></linearGradient></defs><g transform="translate(54.308 16.9)"><path class="a" d="M63.9,82.3c-3.2,0-5.6.9-7.2,2.6s-2.4,4.3-2.4,7.8.8,6.1,2.4,7.8,4,2.6,7.2,2.6a17.96,17.96,0,0,0,2.2-.2,22.5,22.5,0,0,0,2.2-.5,11.918,11.918,0,0,0,2-.8v-3a14.466,14.466,0,0,1-2.9,1.3,9.468,9.468,0,0,1-2.8.4,7.808,7.808,0,0,1-3.7-.8A4.562,4.562,0,0,1,58.7,97a10.958,10.958,0,0,1-.7-4.4,10.958,10.958,0,0,1,.7-4.4,5.37,5.37,0,0,1,2.2-2.5,8.1,8.1,0,0,1,3.7-.8,10.116,10.116,0,0,1,2.9.4,12.987,12.987,0,0,1,3,1.3v-3a16.292,16.292,0,0,0-3.1-1.1C66,82.5,65,82.3,63.9,82.3Z" transform="translate(-54.3 -81.2)"/><path class="a" d="M80.2,87.3a13.575,13.575,0,0,0-2.9.3c-1,.2-1.8.5-2.5.7a11.255,11.255,0,0,0-1.5.7v13.8h3.2V90.5c.4-.1.8-.1,1.3-.2a7.569,7.569,0,0,1,1.5-.1h1.5c.5,0,1,.1,1.5.1V87.8a6.891,6.891,0,0,0-.8-.3A5.067,5.067,0,0,0,80.2,87.3Z" transform="translate(-54.3 -81.2)"/><path class="a" d="M94.7,88.2a8.712,8.712,0,0,0-4.2-.9,7.273,7.273,0,0,0-5.4,1.9,8.616,8.616,0,0,0-1.9,6,8.958,8.958,0,0,0,1.8,6c1.2,1.4,3,2.1,5.5,2.1a7.006,7.006,0,0,0,5.4-2.1c1.3-1.4,1.9-3.4,1.9-6a11,11,0,0,0-.8-4.3A4.721,4.721,0,0,0,94.7,88.2Zm-.3,9.9a4.312,4.312,0,0,1-1.3,1.9,3.727,3.727,0,0,1-2.5.7,3.623,3.623,0,0,1-3.2-1.4,7.263,7.263,0,0,1-.9-3.9,7.544,7.544,0,0,1,.4-2.8,3.524,3.524,0,0,1,1.3-1.8,5.1,5.1,0,0,1,4.8,0,3.524,3.524,0,0,1,1.3,1.8,8.475,8.475,0,0,1,.4,2.9A5.979,5.979,0,0,1,94.4,98.1Z" transform="translate(-54.3 -81.2)"/><path class="a" d="M114.8,99.2l-3.3-11.5h-2.7l-3.2,11.4-3.4-11.4H98.8l5.1,15.2h3l3.2-10.8,3.3,10.8h3l5.1-15.2h-3.3Z" transform="translate(-54.3 -81.2)"/><path class="a" d="M133.2,88.2a4.876,4.876,0,0,0-.7-.3,13.636,13.636,0,0,0-1.7-.4,9.323,9.323,0,0,0-1.4-.2c-2.4,0-4.2.7-5.3,2.1a8.468,8.468,0,0,0-1.8,5.7,12.457,12.457,0,0,0,.6,4.2,5.836,5.836,0,0,0,1.7,2.5A5.45,5.45,0,0,0,127,103a12.413,12.413,0,0,0,2.7.3,19.526,19.526,0,0,0,2.3-.2,7.431,7.431,0,0,0,3.7-1.8,2.452,2.452,0,0,0,.6-1.6V81.3h-3.2v6.9Zm0,11.2c0,.4-.3.7-1,.9a7.55,7.55,0,0,1-2.3.3,4.332,4.332,0,0,1-2.7-.7,3.1,3.1,0,0,1-1.3-2,10.952,10.952,0,0,1-.4-2.7,7.782,7.782,0,0,1,.5-2.8,3.413,3.413,0,0,1,1.4-1.7,4.265,4.265,0,0,1,2.4-.6,11.135,11.135,0,0,1,1.7.2,6.121,6.121,0,0,1,1.7.7v8.4Z" transform="translate(-54.3 -81.2)"/><path class="a" d="M147.1,81.2a5.7,5.7,0,0,0-1.3.1,7.366,7.366,0,0,0-1.4.4,3.051,3.051,0,0,0-1.3,1,3.932,3.932,0,0,0-.9,1.7,10.063,10.063,0,0,0-.3,2.7v.6h-2.5v2.6h2.4v12.6H145V90.3h3.8V87.7H145v-.9a6.267,6.267,0,0,1,.2-1.6,1.456,1.456,0,0,1,.6-.9,2.01,2.01,0,0,1,.8-.4,2.769,2.769,0,0,1,.9-.1,1.483,1.483,0,0,1,.7.1l.6.3V81.4c-.2-.1-.5-.1-.8-.2A2.719,2.719,0,0,1,147.1,81.2Z" transform="translate(-54.3 -81.2)"/><path class="a" d="M161.6,96.8a4.2,4.2,0,0,1-.9,2.9,4.5,4.5,0,0,1-5.4,0,4.03,4.03,0,0,1-.9-2.9V87.7h-3.2v9.5a6.835,6.835,0,0,0,.8,3.4,4.522,4.522,0,0,0,2.3,2,7.983,7.983,0,0,0,3.6.7,7.359,7.359,0,0,0,4.9-1.5c1.2-1,1.7-2.6,1.7-4.6V87.7h-3.1v9.1Z" transform="translate(-54.3 -81.2)"/><path class="a" d="M178.6,87.9a8.8,8.8,0,0,0-3.5-.6,12.751,12.751,0,0,0-1.9.1c-.6.1-1.3.2-1.9.3a12.091,12.091,0,0,0-1.8.5,11.639,11.639,0,0,0-1.5.6v14h3.2V90.6a7.491,7.491,0,0,1,1.6-.4,9.853,9.853,0,0,1,1.7-.2,5.04,5.04,0,0,1,1.9.3,2.979,2.979,0,0,1,1.1.7,2.355,2.355,0,0,1,.5,1,4.484,4.484,0,0,1,.1,1.1v9.6h3.2V92.8a5.93,5.93,0,0,0-.7-3.1A3.935,3.935,0,0,0,178.6,87.9Z" transform="translate(-54.3 -81.2)"/><path class="a" d="M194.8,88.2a4.876,4.876,0,0,0-.7-.3,13.636,13.636,0,0,0-1.7-.4,9.323,9.323,0,0,0-1.4-.2c-2.4,0-4.2.7-5.3,2.1a8.468,8.468,0,0,0-1.8,5.7,12.457,12.457,0,0,0,.6,4.2,5.835,5.835,0,0,0,1.7,2.5,5.45,5.45,0,0,0,2.4,1.2,12.413,12.413,0,0,0,2.7.3,19.526,19.526,0,0,0,2.3-.2,7.431,7.431,0,0,0,3.7-1.8,2.452,2.452,0,0,0,.6-1.6V81.3h-3.2v6.9Zm0,11.2c0,.4-.3.7-1,.9a7.55,7.55,0,0,1-2.3.3,4.332,4.332,0,0,1-2.7-.7,3.1,3.1,0,0,1-1.3-2,10.952,10.952,0,0,1-.4-2.7,7.782,7.782,0,0,1,.5-2.8,3.413,3.413,0,0,1,1.4-1.7,4.265,4.265,0,0,1,2.4-.6,11.135,11.135,0,0,1,1.7.2,6.121,6.121,0,0,1,1.7.7v8.4Z" transform="translate(-54.3 -81.2)"/><rect class="a" width="3.2" height="21" transform="translate(146.9 0.7)"/><path class="a" d="M218.7,87.7,214.6,99l-4.2-11.4h-3.6l6.2,15.1a5.024,5.024,0,0,1-.5,1.3,3.881,3.881,0,0,1-1,1.4,2.456,2.456,0,0,1-1.5.5,2.2,2.2,0,0,1-.8-.1c-.2-.1-.5-.1-.7-.2v2.7l.9.3a3.75,3.75,0,0,0,1.1.1,3.922,3.922,0,0,0,1.8-.4,5.974,5.974,0,0,0,1.8-1.5,10.351,10.351,0,0,0,1.6-3L222,87.7h-3.3Z" transform="translate(-54.3 -81.2)"/></g><path class="b" d="M19.3,71.1,1,86.5a2.52,2.52,0,0,0-.6,3.4l4.7,7.3,6.6,10.2L34.9,88.2,22.7,71.6A2.407,2.407,0,0,0,19.3,71.1Z" transform="translate(0.008 -64.3)"/><path class="c" d="M41.1,78.4,3.5,87.9C1,88.7.9,90.6,1.9,92.1l13.4,20.7a2.624,2.624,0,0,0,2.8,1.1l24.2-6.2a2.418,2.418,0,0,0,1.5-2.5l.8-24.7C44.5,78.7,42.7,78,41.1,78.4Z" transform="translate(0.008 -64.3)"/><path class="d" d="M5.4,103.1l6,9.5a.553.553,0,0,1-.3.8l-4.4,1.2a.441.441,0,0,1-.6-.4L4.5,103.6C4.4,102.9,5.1,102.7,5.4,103.1Z" transform="translate(0.008 -64.3)"/><circle class="b" cx="2.7" cy="2.7" r="2.7" transform="translate(30.408 7.3)"/><circle class="e" cx="2" cy="2" r="2" transform="translate(38.408 2.9)"/><circle class="e" cx="1.7" cy="1.7" r="1.7" transform="translate(28.108)"/><path class="f" d="M1.3,90.1l.2-.7A2.544,2.544,0,0,0,1.3,90.1Z" transform="translate(0.008 -64.3)"/><path class="g" d="M5.9,87.3l-2.5.6a2.816,2.816,0,0,0-2,1.6l-.2.7a2.877,2.877,0,0,0,.5,2l9.7,15,21.5,3.1,7-1.8-9-17.6Z" transform="translate(0.008 -64.3)"/><path class="h" d="M5.9,87.3l-2.5.6a2.816,2.816,0,0,0-2,1.6l-.2.7a2.877,2.877,0,0,0,.5,2l9.7,15,21.5,3.1,7-1.8-9-17.6Z" transform="translate(0.008 -64.3)"/></svg>