<svg xmlns="http://www.w3.org/2000/svg" width="835.495" height="462.863" viewBox="0 0 835.495 462.863"><defs><style>.a{fill:#fff;}.b{fill:rgba(0,94,254,0.1);}.c{fill:#f4a671;}.d{fill:#2c3a64;}.e{fill:#b64c41;}.f{fill:#0858e1;}.g{fill:#ffb27d;}.h{fill:#2fc1e1;}.i{fill:#ed985f;}.j{fill:#233862;}.k{fill:#00a4c8;}.l{fill:#5777f3;}.m{fill:#ed7d2b;}.n{fill:#2b478b;}.o{fill:#35488b;}.p{fill:#ed975d;}.q{fill:#4a75cb;}.r{fill:#e58638;}.s{fill:#739af0;}.t{opacity:0.5;}.u{fill:#ccdfed;}.v{fill:#efcdaf;}.w{fill:#e2b99a;}.x{fill:#fff3e9;}.y{fill:#afcdfb;}.z{fill:#e57970;}.aa{fill:#d3671e;}.ab{fill:#f1a34f;}.ac{fill:#d86713;opacity:0.4;}.ad{fill:#c95c12;}.ae{fill:#caddff;}.af{fill:#f9ddbf;}.ag{fill:#e5c1a1;}.ah{fill:#699ff0;}.ai{fill:#963333;}.aj{fill:#b7d2f9;}.ak{fill:#60ce83;}.al{fill:#36be61;}</style></defs><g transform="translate(3774.487 -325.615)"><g transform="translate(-3795 325.615)"><path class="a" d="M322.39,568.243S219.739,458.011,305.013,338.688c75.68-105.871,163.906-98.625,228.65-55.686,27.575,18.283,107.079,2.248,174.708-105.469,92.252-146.932,412.079-57.8,353.776,168.233-28.212,109.394,85.878,113.352,27.743,222.712Z" transform="translate(-250.635 -105.615)"/><path class="b" d="M482.2,1242.638s35.76-85.811,110.568-39.551c56.626,35.022,127.81-10.3,164.879-61.993s260.686.671,310.435,63.771c20.9,26.5,71.487,2.247,79.538,36.733Z" transform="translate(-390.888 -779.776)"/><g transform="translate(411.458 88.12)"><path class="c" d="M1769.779,893.96c.067-3.522,2.784-9.494-2.583-15.163a117.028,117.028,0,0,1-8.755-10.9c-.57-.906-7.078,4.428-6.944,4.663,1.073,1.577,5.971,9.661,6.676,14.156.772,5.065,9.46,10.634,9.46,10.634S1769.745,897.449,1769.779,893.96Z" transform="translate(-1645.842 -700.232)"/><path class="c" d="M1715.807,685.694l-10.3.134s-16.135-25.461-16.605-33.546c-.47-7.716-15.968-41.5,2.18-62.6a29.814,29.814,0,0,1,2.684-2.784l.1-.1a1,1,0,0,1,.1.134,39.829,39.829,0,0,1,3.489,8.99c2.65,8.99,5.9,25.7,6.676,54.546C1704.1,650.47,1711.278,675.16,1715.807,685.694Z" transform="translate(-1599.854 -513.502)"/><path class="d" d="M1676.01,478.4s-1.107,3.019.537,4.193-4.16,6.609-5.3,11.137c-1.107,4.562.268,6.944.268,6.944s-.168-2.751.839-4.093c0,0-1.073,3.12.7,5.434,1.812,2.315.738,3.489.738,3.489s5.7.1,7.078-3.757a11.106,11.106,0,0,1-.738,2.516s5.569-1.946,7.011-5.77-1.275-8.286-2.952-8.89-4.428-5.166-3.925-6.407C1680.773,481.989,1676.01,478.4,1676.01,478.4Z" transform="translate(-1592.228 -441.466)"/><path class="e" d="M1581.481,1033.748l-6.676,2.482s-28.984-40.188-32.54-75.546a53.79,53.79,0,0,1,.939-18.081s-.268-1.61-.772-4.462c-.235-1.342-.5-2.952-.839-4.8-.939-5.4-2.247-12.781-3.724-21.2-3.422-19.356-7.816-44.079-11.271-62.295l1.812-.57,19.457-6.273,4.026-12.781,14.492-3.824s3.22,6.34,6.139,36.23c.537,3.925,1.006,8.252,1.375,12.949a255.281,255.281,0,0,1-1.375,52.365c-.671,5.2-1.51,10.567-2.549,16.068-.772,4.026-.872,9.561-.57,15.867C1570.847,988.83,1581.481,1033.748,1581.481,1033.748Z" transform="translate(-1496.391 -672.726)"/><path class="f" d="M1573.8,873.02l-31.466,62.53c-.235-1.342-.5-2.952-.839-4.8-.939-5.4-2.248-12.781-3.724-21.2-3.422-19.356-7.816-44.079-11.271-62.295l1.812-.57,19.457-6.273,4.026-12.781,17.31-5.133s.4,7.649,3.321,37.572C1572.961,864,1573.431,868.324,1573.8,873.02Z" transform="translate(-1496.324 -670.134)"/><path class="d" d="M1641.281,386.381l-31.4,25.428s-.906-5.5-4.16-4.663c-5.032,1.308-12.781-12.211-6.81-24.422.4-.805,5.233-12.915,20.7-14.425C1639.47,369.81,1641.281,386.381,1641.281,386.381Z" transform="translate(-1543.007 -368.3)"/><path class="g" d="M1615.258,534.788a37.853,37.853,0,0,1-14.056,3.288c-20.966,1.141-25.73-17.243-26.6-29.42a16.988,16.988,0,0,1,7.179-.906c1.476.067,3.053.235,4.328.4,2.549-1.342,7.179-7.85,9.829-18.752l.906.436,15.129,7.112s-1.61,4.931-2.784,9.628c-.939,3.69-1.577,7.246-1.04,8.252,1.208.47,1.912.805,1.912.805h0A101.717,101.717,0,0,1,1615.258,534.788Z" transform="translate(-1528.289 -448.776)"/><path class="h" d="M1552.533,584.211c-.168.4-.335.839-.537,1.241-5.3,11.439-19.759,49.246-19.759,49.246,1.409,8.521-59.41,7.917-59.578.168-1.845-6.609,4.562-16.438,10.2-23.482,1.375-1.711,2.717-3.254,3.858-4.562a19.147,19.147,0,0,0,4.663-10.5,184.58,184.58,0,0,0,.805-20.228c0-2.784-.034-5.267,0-7.313,1.141-.872,2.281-1.644,3.321-2.382a31.273,31.273,0,0,0,4.026-3.355,6.211,6.211,0,0,0,1.946-3.791,20.327,20.327,0,0,0-.067-3.187,11.65,11.65,0,0,0-.2-1.51,42.375,42.375,0,0,0-3.053-10.164c5.636-2.281,15.632-.906,15.632-.906v1.476c-.034,3.657,0,13.049,1.174,14.827,1.476,2.214,28.279,11.909,29.688,8.89,1.375-2.952-2.415-16.773-2.583-17.31v-.034c.3.1.57.235.839.335,1.375.57,2.55,1.208,3.69,1.61,7.279,2.65,7.984,5.1,7.984,5.1C1549.212,561.8,1556.726,573.107,1552.533,584.211Z" transform="translate(-1460.33 -484.445)"/><path class="i" d="M1656.029,497.712s-1.61,4.931-2.784,9.628c-8.856-2.482-11.54-11.775-12.345-16.739Z" transform="translate(-1572.348 -449.573)"/><path class="g" d="M1655.44,451.1s-21.167-4.9-17.914-18.014,2.717-22.61,16.37-20.027,15.029,8.219,15,12.882C1668.858,430.568,1661.042,452.038,1655.44,451.1Z" transform="translate(-1569.88 -397.76)"/><path class="d" d="M1659.609,413.7c-2.281-4.764-4.965-4.5-6.642-3.657-9.93-9.192-19.692-1.677-19.692-1.677A25.957,25.957,0,0,1,1621.4,421.15s3.254,3.321,12.68,3.254a15.732,15.732,0,0,0,8.42-3.153,50.678,50.678,0,0,1-11.037,8.219c11.808-2.248,19.692-15.9,20.5-17.377,1.006,1.476,2.919,4.629,3.086,7.279.235,3.589-1.006,10.6,1.04,10.869C1656.053,430.241,1663,420.848,1659.609,413.7Z" transform="translate(-1559.389 -393.005)"/><path class="j" d="M1685.116,1445.646H1651.5s-1.241-5.367.939-8.99c1.946-3.22,1.778-5.2.335-7.85a10.193,10.193,0,0,0,5.065,1.174c1.677-.1,3.522-1.275,5.1-2.181,1.443,1.644,7.548,9.091,9.494,10.466C1674.65,1439.843,1684.445,1439.306,1685.116,1445.646Z" transform="translate(-1579.16 -1072.38)"/><path class="k" d="M1527.215,648.841c-8.789-.6-17.108-1.409-23.415-2.919,1.375-1.711,2.717-3.254,3.858-4.562a19.148,19.148,0,0,0,4.663-10.5,184.545,184.545,0,0,0,.8-20.228c7.649-8.554,14.089-15.532,14.089-15.532s14.257,13.083,16.471,26.1S1550.06,650.451,1527.215,648.841Z" transform="translate(-1481.239 -519.018)"/><path class="l" d="M1584.2,543a42.632,42.632,0,0,1,8.152,30.695h4.294s2.415-12.882-8.453-30.326c0,0-1.409-.2-1.879-.235C1585.743,543.067,1584.2,543,1584.2,543Z" transform="translate(-1534.668 -484.395)"/><path class="l" d="M1687.027,600.336l-4.16-1.04a43.51,43.51,0,0,0-.067-30.9c1.375.57,2.583,1.107,3.69,1.61C1692.26,588.9,1687.027,600.336,1687.027,600.336Z" transform="translate(-1600.192 -501.274)"/><path class="l" d="M1527.488,627.021s-20.664-5.367-26.5-6.877-6.273,1.946-6.273,1.946-.805,11.2-.906,12.378c-1.342,17.612-26.568,20.631-26.568,20.631s-6.508,8.118-12.11,16.1c-9.594,13.687-8.42,36.8-8.42,36.8h0a68.579,68.579,0,0,0-.034,9.125c.772,12.144,2.147,63.8,3.589,79.068.537,5.535.973,9.494,1.174,11.07h0a1.957,1.957,0,0,1-.369,1.342,74.265,74.265,0,0,0-5.334,11.2c-14.19,37.773,2.18,84.335,2.18,84.335l4.26-1.711s9.326-51.8,16.874-74.673a43.331,43.331,0,0,1,3.656-8.755c3.288-5.3,6.34-13.989,9.125-24.287,5.233-19.524,9.46-44.885,12.244-64.475.4.034,3.455-26.3,13.586-38.41l3.958-4.059,12.546-30.829s3.455-20.5,4.529-23.952A6.728,6.728,0,0,0,1527.488,627.021Z" transform="translate(-1438.808 -535.407)"/><g transform="translate(57.985 85.911)"><path class="m" d="M1609.4,626.211a1.811,1.811,0,1,1,1.812,1.812A1.8,1.8,0,0,1,1609.4,626.211Z" transform="translate(-1609.4 -624.4)"/><path class="h" d="M1610.3,626.211a1.812,1.812,0,1,1,1.812,1.812A1.8,1.8,0,0,1,1610.3,626.211Z" transform="translate(-1609.998 -624.4)"/><path class="n" d="M1612.483,628.451a.265.265,0,1,1,.168.335A.277.277,0,0,1,1612.483,628.451Z" transform="translate(-1611.443 -626.975)"/><path class="n" d="M1617.358,629.951a.265.265,0,1,1,.168.335A.24.24,0,0,1,1617.358,629.951Z" transform="translate(-1614.674 -627.972)"/></g><g transform="translate(83.849 91.748)"><path class="m" d="M1686.5,643.612a1.812,1.812,0,1,1,1.812,1.811A1.848,1.848,0,0,1,1686.5,643.612Z" transform="translate(-1686.5 -641.8)"/><path class="h" d="M1687.5,643.612a1.812,1.812,0,1,1,1.812,1.811A1.848,1.848,0,0,1,1687.5,643.612Z" transform="translate(-1687.165 -641.8)"/><path class="n" d="M1689.658,645.851a.265.265,0,1,1,.168.335C1689.691,646.119,1689.591,645.985,1689.658,645.851Z" transform="translate(-1688.584 -644.375)"/><path class="n" d="M1694.483,647.351a.265.265,0,1,1,.168.335A.277.277,0,0,1,1694.483,647.351Z" transform="translate(-1691.799 -645.372)"/></g><path class="d" d="M1591.61,459.7s-1.107,3.019.537,4.193-4.16,6.609-5.3,11.137c-1.107,4.562.268,6.944.268,6.944s-.168-2.751.839-4.093c0,0-1.073,3.12.7,5.434,1.812,2.315.738,3.489.738,3.489s5.7.1,7.078-3.757a11.1,11.1,0,0,1-.738,2.516s5.569-1.946,7.011-5.77-1.275-8.286-2.952-8.89-4.428-5.166-3.925-6.407C1596.407,463.289,1591.61,459.7,1591.61,459.7Z" transform="translate(-1536.141 -429.039)"/><path class="h" d="M1713.735,595.932c-4.8.7-6.743,3.556-6.743,3.556a46.747,46.747,0,0,1,.369-9.8,4.319,4.319,0,0,1,1.342-2.751,1.95,1.95,0,0,1,1.342-.034c.067,0,.134.034.2.034A40.673,40.673,0,0,1,1713.735,595.932Z" transform="translate(-1616.199 -513.51)"/><g transform="translate(61.666 122.07)"><path class="n" d="M1723.435,804.551c-8.554.436-14.391-12.815-17.981-12.982a22.216,22.216,0,0,0-3.153.335,62.037,62.037,0,0,1,7.749,20.161c5.133,25.6-5.669,49.313-24.12,53-17.947,3.589-36.5-13.117-42.2-37.572-.168-.671-.3-1.375-.436-2.08a61.256,61.256,0,0,1-.6-21.469v-.067a10.546,10.546,0,0,0-1.711.537c-3.254,1.543-3.556,16.035-11.607,18.92s-13.485-12.58-3.891-24.589c5.837-7.347,16.236-10.869,23.415-12.513a35.678,35.678,0,0,1,5.133-6.541l.2-.2a20.849,20.849,0,0,1-10.6-14.324,21.546,21.546,0,0,1-.3-6.374h-.067a10.644,10.644,0,1,1,11.607-16.538,21.792,21.792,0,0,1,5.166-1.744,19.87,19.87,0,0,1,4.831-.4,10.634,10.634,0,1,1,17.478,10.567,22.013,22.013,0,0,1,2.348,6.273,20.9,20.9,0,0,1-3.656,16.5,32.851,32.851,0,0,1,8.688,4.6c7.212-1.375,19.021-2.516,27.776,2.315C1731.05,787.744,1731.989,804.115,1723.435,804.551Z" transform="translate(-1620.373 -732.188)"/><path class="j" d="M1686.6,966.432c-.168-.671-.3-1.375-.436-2.08a61.257,61.257,0,0,1-.6-21.469c1.073-1.241,2.482-2.147,4.059-1.409,3.522,1.677,2.986,18.585,8.353,22.476C1701.935,966.868,1691.971,966.9,1686.6,966.432Z" transform="translate(-1663.247 -871.09)"/><path class="j" d="M1709.418,829.754a60.625,60.625,0,0,1-10.232,2.684l.2-.2a20.848,20.848,0,0,1-10.6-14.324,21.534,21.534,0,0,1-.3-6.374h-.067c.2-.1.47.034.839.537,1.342,1.912,8.621,17.343,20.094,15.565C1709.418,827.607,1712.4,828.647,1709.418,829.754Z" transform="translate(-1665.564 -784.899)"/><path class="j" d="M1767.3,751.994s2.684-5.032,6.676-3.724,4.562,7.045,1.946,8.655A23.723,23.723,0,0,0,1767.3,751.994Z" transform="translate(-1718.012 -742.731)"/><path class="j" d="M1693.4,766.486s-5.77-2.65-8.353.4c-2.617,3.053,2.617,6.978,2.617,6.978S1690.148,768.667,1693.4,766.486Z" transform="translate(-1662.866 -754.271)"/></g><g transform="translate(27.729 59.395)"><path class="g" d="M1586.028,648.818l-1.845,6.877s-6.508-2.382-9.862-3.657c-1.006-.4-1.577-.637-1.577-.637-2.684-1.04-5.87-2.382-9.359-3.858h-.034c-5.937-2.617-12.58-5.669-18.081-8.688a52.9,52.9,0,0,1-9.326-6.34,3.663,3.663,0,0,1-.6-.637c-5.065-5.267-9.728-18.953-12.68-33.211-.4-1.979-.771-3.925-1.141-5.837a138.858,138.858,0,0,1-2.247-19.893,56.782,56.782,0,0,1,.268-9.225,19.291,19.291,0,0,1,.4-2.549c2.717-14.391,10.232-15.1,10.232-15.1.168-.034.3-.034.537-.067,1.275.034,2.415,1.107,3.455,2.986a46.483,46.483,0,0,1,3.623,10.366c1.677,6.91,3.153,15.767,4.462,24.522.738,4.8,1.409,9.594,2.147,14.022.4,2.684.805,5.233,1.208,7.548a69.194,69.194,0,0,0,2.415,10.433c.537,1.543,2.482,3.891,5.1,6.609a219.862,219.862,0,0,0,17.477,15.767c2.482,2.08,4.864,4.026,6.843,5.6A45.241,45.241,0,0,0,1586.028,648.818Z" transform="translate(-1519.207 -545.784)"/><path class="h" d="M1539.985,558.956c-9.561-4.5-18.685,1.711-18.685,1.711,2.784-14.593,10.668-15.263,10.668-15.263C1535.188,544.767,1537.771,550.469,1539.985,558.956Z" transform="translate(-1520.598 -545.355)"/><path class="g" d="M1697.292,848a44.1,44.1,0,0,0,6.206,1.979c2.248.4,5.736-.7,8.588,1.141s4.9,3.086,4.9,3.086.7,1.04-.839,1.476c-.872.235-5.233-2.516-5.434-1.778s2.784,2.382,4.5,2.482,4.864,1.61,4.864,2.717-5.1,3.757-8.085,3.589c-2.986-.2-9.091-5.434-10.634-5.8s-8.051-2.986-8.051-2.986Z" transform="translate(-1634.899 -746.475)"/></g><path class="j" d="M1470.346,1443.188h-33.613s-.805-5.133.939-8.99c1.677-3.724,4.629-5.569,3.992-10.1a10.812,10.812,0,0,0,9.93,3.656c.6.973,4.059,6.608,6.072,8.051C1459.879,1437.384,1469.675,1436.848,1470.346,1443.188Z" transform="translate(-1436.547 -1069.921)"/></g><g transform="translate(574.125 71.918)"><g transform="translate(100.553 167.931)"><path class="d" d="M2526.521,1383.485s6.508,6.038,5.233,10.332-7.146,7.145-7.95,12.378-3.958,8.085-6.844,8.085h-13.62s-2.113-3.69,2.985-4.8c5.066-1.107,7.011-7.28,6.676-12.982a99.849,99.849,0,0,1,.47-13.351l10.8-2.549Z" transform="translate(-2408.405 -1192.742)"/><path class="d" d="M2258.168,1440.793a15.847,15.847,0,0,1-4.025.57H2221.2c.167-1.04,1.006-4.093,5.837-4.864,5.7-.906,15.565-4.227,17.746-11.506l.2-.7c1.744-7.782,14.458,2.382,14.458,2.382s.034.3.1.839C2259.845,1430.36,2260.583,1439.585,2258.168,1440.793Z" transform="translate(-2221.2 -1219.825)"/><path class="o" d="M2243.2,852.355s1.946,24.052,4.193,53c3.086,39.282,6.776,87.555,7.146,96.713.637,15.867,3.187,41.3,3.187,41.3s6.038,6.038,18.115,3.489c0,0,10.768-36.263,13.821-74.64.034-.637.1-1.275.134-1.912,2.851-39.048,7.313-121.3,7.313-121.3Z" transform="translate(-2235.82 -839.473)"/><path class="d" d="M2243.2,852.355s1.946,24.052,4.193,53l42.268,66.857c.034-.637.1-1.275.134-1.912,2.851-39.048,7.313-121.3,7.313-121.3Z" transform="translate(-2235.82 -839.473)"/><path class="o" d="M2269.4,836.333s34.754,87.153,57.632,128.112c22.845,40.96,29.99,52.4,29.99,52.4s13.083-5.233,14.291-8.823c0,0-8.756-79.068-24.052-98.357-8.655-10.9-18.819-43.576-19.289-55.016s-3.086-34.049-3.086-34.049Z" transform="translate(-2253.231 -820.6)"/></g><path class="g" d="M2026.514,831.6s-12.278,5.9-13.921,7.414-5.736,8.923-5.4,9.494c.3.57.939.738,2.046-.034s4.227-3.992,4.361-3.388c.1.6-8.32,10.534-6.844,12.647,1.51,2.113,9.963,1.476,14.794-1.946s9.661-16.068,10.4-16.773C2038.088,833.11,2026.514,831.6,2026.514,831.6Z" transform="translate(-1978.025 -659.979)"/><path class="f" d="M2057.489,619.14c-3.422-2.952-3.489-3.724-3.489-3.724s21.771-37.605,23.65-41.228,13.553-60.114,13.553-60.114l40.322-11.674s-28.38,73.432-33.345,82.49c-8.185,15-34.955,37.068-34.955,37.068A12.99,12.99,0,0,1,2057.489,619.14Z" transform="translate(-2009.536 -441.212)"/><path class="g" d="M2158.609,421.219s-14.19,24.958-28.044,28.212c0,0,.57-8.386,3.958-14.123-1.375-1.644-2.583-3.12-3.656-4.462a84.989,84.989,0,0,1-5.166-7.212l4.7-12.647,3.187-8.588a40.3,40.3,0,0,0,5,7.179C2147.673,420.045,2158.609,421.219,2158.609,421.219Z" transform="translate(-2057.184 -374.758)"/><path class="p" d="M2138.515,423.89s1.677,12.513-7.749,21.268a84.989,84.989,0,0,1-5.166-7.212l4.7-12.647A26.094,26.094,0,0,1,2138.515,423.89Z" transform="translate(-2057.117 -389.035)"/><path class="g" d="M2079.066,390.235s21.2-8.252,15.834-21.369-6.206-23.013-19.96-18.316c-13.754,4.73-14.324,10.8-13.62,15.6C2062.025,370.98,2073.4,392.047,2079.066,390.235Z" transform="translate(-2014.274 -339.514)"/><path class="l" d="M2238.357,579.667c-8.554,12.278-72.493,28.715-71.721,20.195a92.659,92.659,0,0,0,0-16.773c-.168-1.812-.4-3.757-.671-5.8-1.644-11.171-5.468-25.562-14.089-42.2-.637-1.241-1.308-2.516-2.013-3.791a125.951,125.951,0,0,1-8.856-19.926c-4.428-12.815-6.206-25.059-3.992-33.043,0-.034.033-.067.033-.1C2150.4,472.052,2155.6,448.1,2155.6,448.1s45.589,8.185,71.118,68.937c0,0,2.449,6.676,5.267,15.733,3.388,10.97,7.313,25.461,8.018,35.794C2240.3,573.495,2239.867,577.453,2238.357,579.667Z" transform="translate(-2064.071 -405.128)"/><path class="n" d="M2082.253,324.965c.134-.3.57-.6,1.644-.939a4.288,4.288,0,0,0-2.147-.067c-.6-1.442-2.046-3.925-4.763-3.958a3.313,3.313,0,0,1,2.113,1.979c-3.724-2.348-10.6-3.053-27.81,2.684-22.677,7.548-11.339,20.7-7.917,21.771,3.422,1.04,9.762-5.7,15.465-6.642s8.755,7.011,10.936,7.648c2.181.671.939-1.141,3.22-2.952s3.589,2.449,3.522,5.434c-.034,2.986,4.395,5.8,4.395,5.8l2.583-4.764c2.583-4.764,1.878-22.073-.6-25.159C2082.689,325.535,2082.488,325.267,2082.253,324.965Z" transform="translate(-1998.574 -320)"/><path class="f" d="M2319.471,644.488C2264.456,627.882,2255.7,562.3,2255.7,562.3s31.332,23.952,55.753,46.394C2314.875,619.664,2318.766,634.156,2319.471,644.488Z" transform="translate(-2143.574 -481.018)"/><path class="g" d="M2488.746,807.36s-1.241,10.4-.939,12.11,2.281,6.743,2.784,6.776,1.979.1,1.946-.939-.7-2.013-.268-1.845.57,4.093,2.55,3.992,7.816-2.315,7.582-6.877-6.475-12.915-6.609-13.687C2494.515,800.483,2488.746,807.36,2488.746,807.36Z" transform="translate(-2297.786 -641.743)"/><path class="l" d="M2295.351,598.479c-4.361,2.013-5.971-.034-5.971-.034s-25.428-42.436-28.112-45.857-49.615-23.549-49.615-23.549-19.088-7.313-19.859-18.886c-.671-10.064,5.065-16.236,11.3-19.993a21.08,21.08,0,0,1,23.75,1.543c15.4,11.942,45.925,35.995,50.822,42.536,10.936,14.525,23.046,60.014,23.046,60.014A15.072,15.072,0,0,1,2295.351,598.479Z" transform="translate(-2101.07 -431.118)"/><g transform="translate(0 169.234)"><path class="q" d="M2117.782,902.463,2106.343,913.9l-.168-.1L2089,903.033s8.89,2.885,10.1,2.549c1.14-.3,13.552-4.6,16.471-4.227a1.338,1.338,0,0,1,.436.134Z" transform="translate(-2032.795 -875.554)"/><path class="r" d="M2029.883,890.467c-.47-.1-1.812-.436-3.69-.906-5.334-1.375-14.727-3.992-18.45-6.139-3.321-1.912-20.933-12.144-33.043-19.356a22.482,22.482,0,0,1,13.62-2.449c14.156,8.319,32.64,19.222,34.888,20.8,3.724,2.617,8.789,5.77,8.789,5.77s-.034.134-.067.369C2031.762,889.327,2031.225,890.769,2029.883,890.467Z" transform="translate(-1956.838 -849.033)"/><path class="s" d="M1994.5,865.919c-.47-.1-1.812-.436-3.69-.906-5.334-1.375-14.727-3.992-18.45-6.139-3.321-1.912-20.933-12.144-33.043-19.356-6.072-3.623-10.8-6.441-11.607-7.078-2.482-1.912-7.246-6.642-6.072-7.548s3.455,0,4.327-.134H1926q.3-.05,1.006-.1c1.644-.1,4.864.134,9.493,2.784,0,0,7.313,4.294,16.438,9.628,14.156,8.319,32.64,19.222,34.888,20.8,3.724,2.617,8.789,5.77,8.789,5.77s-.033.134-.067.369C1996.378,864.779,1995.841,866.221,1994.5,865.919Z" transform="translate(-1921.454 -824.485)"/><path class="q" d="M2129.431,938.7c-.47-.1-1.812-.436-3.69-.906A5.437,5.437,0,0,0,2124.5,934l6.978,2.818C2131.31,937.556,2130.773,939,2129.431,938.7Z" transform="translate(-2056.386 -897.262)"/><g class="t" transform="translate(4.51 0.173)"><g transform="translate(45.152 26.869)"><path class="q" d="M2093.9,920.1h0a.219.219,0,0,1-.067-.3l.134-.2a.218.218,0,0,1,.3-.067h0a.219.219,0,0,1,.067.3l-.134.2A.256.256,0,0,1,2093.9,920.1Z" transform="translate(-2085.645 -914.665)"/><path class="q" d="M2090.9,918.3h0a.219.219,0,0,1-.067-.3l.134-.2a.218.218,0,0,1,.3-.067h0a.219.219,0,0,1,.067.3l-.134.2A.256.256,0,0,1,2090.9,918.3Z" transform="translate(-2083.651 -913.469)"/><path class="q" d="M2087.8,916.5h0a.219.219,0,0,1-.067-.3l.134-.2a.219.219,0,0,1,.3-.067h0a.218.218,0,0,1,.067.3l-.134.2A.212.212,0,0,1,2087.8,916.5Z" transform="translate(-2081.591 -912.273)"/><path class="q" d="M2084.8,914.7h0a.219.219,0,0,1-.067-.3l.134-.2a.218.218,0,0,1,.3-.067h0a.219.219,0,0,1,.067.3l-.134.2A.218.218,0,0,1,2084.8,914.7Z" transform="translate(-2079.597 -911.077)"/><path class="q" d="M2081.7,912.9h0a.218.218,0,0,1-.067-.3l.134-.2a.219.219,0,0,1,.3-.067h0a.218.218,0,0,1,.067.3l-.134.2C2081.966,912.935,2081.832,912.968,2081.7,912.9Z" transform="translate(-2077.537 -909.881)"/><path class="q" d="M2078.7,911.1h0a.218.218,0,0,1-.067-.3l.134-.2a.219.219,0,0,1,.3-.067h0a.219.219,0,0,1,.067.3l-.134.2A.218.218,0,0,1,2078.7,911.1Z" transform="translate(-2075.543 -908.684)"/><path class="q" d="M2075.7,909.3h0a.219.219,0,0,1-.067-.3l.134-.2a.218.218,0,0,1,.3-.067h0a.218.218,0,0,1,.067.3l-.134.2A.218.218,0,0,1,2075.7,909.3Z" transform="translate(-2073.55 -907.488)"/><path class="q" d="M2072.6,907.5h0a.219.219,0,0,1-.067-.3l.134-.2a.219.219,0,0,1,.3-.067h0a.219.219,0,0,1,.067.3l-.134.2A.211.211,0,0,1,2072.6,907.5Z" transform="translate(-2071.49 -906.292)"/><path class="q" d="M2069.6,905.7h0a.219.219,0,0,1-.067-.3l.134-.2a.218.218,0,0,1,.3-.067h0a.219.219,0,0,1,.067.3l-.134.2A.218.218,0,0,1,2069.6,905.7Z" transform="translate(-2069.496 -905.096)"/></g><g transform="translate(24.99 14.96)"><path class="q" d="M2033.8,884.5h0a.218.218,0,0,1-.067-.3l.134-.2a.219.219,0,0,1,.3-.067h0a.218.218,0,0,1,.067.3l-.134.2A.219.219,0,0,1,2033.8,884.5Z" transform="translate(-2025.544 -879.099)"/><path class="q" d="M2030.7,882.7h0a.219.219,0,0,1-.067-.3l.134-.2a.218.218,0,0,1,.3-.067h0a.218.218,0,0,1,.067.3l-.134.2C2030.966,882.735,2030.832,882.768,2030.7,882.7Z" transform="translate(-2023.484 -877.903)"/><path class="q" d="M2027.7,880.9h0a.218.218,0,0,1-.067-.3l.134-.2a.219.219,0,0,1,.3-.067h0a.219.219,0,0,1,.067.3l-.134.2A.212.212,0,0,1,2027.7,880.9Z" transform="translate(-2021.491 -876.706)"/><path class="q" d="M2024.7,879.1h0a.218.218,0,0,1-.067-.3l.134-.2a.218.218,0,0,1,.3-.067h0a.218.218,0,0,1,.067.3l-.134.2A.218.218,0,0,1,2024.7,879.1Z" transform="translate(-2019.497 -875.51)"/><path class="q" d="M2021.6,877.3h0a.219.219,0,0,1-.067-.3l.134-.2a.219.219,0,0,1,.3-.067h0a.219.219,0,0,1,.067.3l-.134.2C2021.866,877.335,2021.732,877.368,2021.6,877.3Z" transform="translate(-2017.437 -874.314)"/><path class="q" d="M2018.6,875.5h0a.218.218,0,0,1-.067-.3l.134-.2a.219.219,0,0,1,.3-.067h0a.218.218,0,0,1,.067.3l-.134.2A.219.219,0,0,1,2018.6,875.5Z" transform="translate(-2015.443 -873.118)"/><path class="q" d="M2015.6,873.8h0a.219.219,0,0,1-.067-.3l.134-.2a.219.219,0,0,1,.3-.067h0a.218.218,0,0,1,.067.3l-.134.2A.322.322,0,0,1,2015.6,873.8Z" transform="translate(-2013.45 -871.988)"/><path class="q" d="M2012.5,872h0a.218.218,0,0,1-.067-.3l.134-.2a.219.219,0,0,1,.3-.067h0a.218.218,0,0,1,.067.3l-.134.2C2012.766,872,2012.6,872.035,2012.5,872Z" transform="translate(-2011.39 -870.792)"/><path class="q" d="M2009.5,870.2h0a.219.219,0,0,1-.067-.3l.134-.2a.219.219,0,0,1,.3-.067h0a.218.218,0,0,1,.067.3l-.134.2A.257.257,0,0,1,2009.5,870.2Z" transform="translate(-2009.396 -869.596)"/></g><path class="q" d="M1997.7,863.2h0a.219.219,0,0,1-.067-.3l.134-.2a.219.219,0,0,1,.3-.067h0a.218.218,0,0,1,.067.3l-.134.2A.212.212,0,0,1,1997.7,863.2Z" transform="translate(-1976.564 -849.984)"/><path class="q" d="M2003.7,866.7h0a.218.218,0,0,1-.067-.3l.134-.2a.218.218,0,0,1,.3-.067h0a.219.219,0,0,1,.067.3l-.134.2A.218.218,0,0,1,2003.7,866.7Z" transform="translate(-1980.551 -852.31)"/><path class="q" d="M1994.7,861.4h0a.219.219,0,0,1-.067-.3l.134-.2a.219.219,0,0,1,.3-.067h0a.219.219,0,0,1,.067.3l-.134.2A.219.219,0,0,1,1994.7,861.4Z" transform="translate(-1974.57 -848.788)"/><path class="q" d="M1991.6,859.6h0a.219.219,0,0,1-.067-.3l.134-.2a.219.219,0,0,1,.3-.067h0a.218.218,0,0,1,.067.3l-.134.2C1991.866,859.635,1991.732,859.668,1991.6,859.6Z" transform="translate(-1972.51 -847.592)"/><path class="q" d="M1988.6,857.8h0a.218.218,0,0,1-.067-.3l.134-.2a.219.219,0,0,1,.3-.067h0a.219.219,0,0,1,.067.3l-.134.2A.218.218,0,0,1,1988.6,857.8Z" transform="translate(-1970.517 -846.395)"/><path class="q" d="M1985.6,856h0a.218.218,0,0,1-.067-.3l.134-.2a.218.218,0,0,1,.3-.067h0a.218.218,0,0,1,.067.3l-.134.2A.219.219,0,0,1,1985.6,856Z" transform="translate(-1968.523 -845.199)"/><path class="q" d="M1982.5,854.2h0a.218.218,0,0,1-.067-.3l.134-.2a.218.218,0,0,1,.3-.067h0a.219.219,0,0,1,.067.3l-.134.2A.212.212,0,0,1,1982.5,854.2Z" transform="translate(-1966.463 -844.003)"/><path class="q" d="M1979.5,852.4h0a.219.219,0,0,1-.067-.3l.134-.2a.219.219,0,0,1,.3-.067h0a.218.218,0,0,1,.067.3l-.134.2A.219.219,0,0,1,1979.5,852.4Z" transform="translate(-1964.469 -842.807)"/><path class="q" d="M1976.4,850.6h0a.218.218,0,0,1-.067-.3l.134-.2a.218.218,0,0,1,.3-.067h0a.218.218,0,0,1,.067.3l-.134.2C1976.666,850.635,1976.532,850.668,1976.4,850.6Z" transform="translate(-1962.409 -841.611)"/><path class="q" d="M1973.4,848.8h0a.219.219,0,0,1-.067-.3l.134-.2a.219.219,0,0,1,.3-.067h0a.218.218,0,0,1,.067.3l-.134.2A.212.212,0,0,1,1973.4,848.8Z" transform="translate(-1960.416 -840.415)"/><path class="q" d="M1970.4,847.1h0a.219.219,0,0,1-.067-.3l.134-.2a.218.218,0,0,1,.3-.067h0a.218.218,0,0,1,.067.3l-.134.2C1970.666,847.135,1970.532,847.168,1970.4,847.1Z" transform="translate(-1958.422 -839.285)"/><path class="q" d="M1967.4,845.3h0a.218.218,0,0,1-.067-.3l.134-.2a.219.219,0,0,1,.3-.067h0a.219.219,0,0,1,.067.3l-.134.2A.218.218,0,0,1,1967.4,845.3Z" transform="translate(-1956.428 -838.089)"/><path class="q" d="M1964.4,843.5h0a.219.219,0,0,1-.067-.3l.134-.2a.218.218,0,0,1,.3-.067h0a.218.218,0,0,1,.067.3l-.134.2A.219.219,0,0,1,1964.4,843.5Z" transform="translate(-1954.435 -836.893)"/><path class="q" d="M1937.013,826.342a.32.32,0,0,1-.4.1c-.034,0-.067-.034-.1-.067l-1.61-1.275q.3-.05,1.006-.1l1.04.839A.342.342,0,0,1,1937.013,826.342Z" transform="translate(-1934.9 -825)"/><path class="q" d="M2016.678,875.223l-.3-.168a.482.482,0,0,1-.168-.6l.771-1.275a.482.482,0,0,1,.6-.168l.3.168a.482.482,0,0,1,.168.6l-.772,1.275A.482.482,0,0,1,2016.678,875.223Z" transform="translate(-1988.902 -856.873)"/><path class="q" d="M2022.678,878.723l-.3-.168a.482.482,0,0,1-.168-.6l.772-1.275a.482.482,0,0,1,.6-.168l.3.168a.482.482,0,0,1,.168.6l-.772,1.275A.42.42,0,0,1,2022.678,878.723Z" transform="translate(-1992.889 -859.199)"/><g transform="translate(33.981 20.26)"><path class="q" d="M2060.7,900.4h0a.219.219,0,0,1-.067-.3l.134-.2a.218.218,0,0,1,.3-.067h0a.218.218,0,0,1,.067.3l-.134.2A.219.219,0,0,1,2060.7,900.4Z" transform="translate(-2052.411 -894.965)"/><path class="q" d="M2057.6,898.6h0a.218.218,0,0,1-.067-.3l.134-.2a.219.219,0,0,1,.3-.067h0a.219.219,0,0,1,.067.3l-.134.2A.211.211,0,0,1,2057.6,898.6Z" transform="translate(-2050.351 -893.769)"/><path class="q" d="M2054.6,896.8h0a.218.218,0,0,1-.067-.3l.134-.2a.219.219,0,0,1,.3-.067h0a.219.219,0,0,1,.067.3l-.134.2A.218.218,0,0,1,2054.6,896.8Z" transform="translate(-2048.357 -892.573)"/><path class="q" d="M2051.5,895h0a.219.219,0,0,1-.067-.3l.134-.2a.218.218,0,0,1,.3-.067h0a.219.219,0,0,1,.067.3l-.134.2C2051.766,895.035,2051.632,895.068,2051.5,895Z" transform="translate(-2046.297 -891.377)"/><path class="q" d="M2048.5,893.2h0a.218.218,0,0,1-.067-.3l.134-.2a.219.219,0,0,1,.3-.067h0a.219.219,0,0,1,.067.3l-.134.2A.218.218,0,0,1,2048.5,893.2Z" transform="translate(-2044.303 -890.181)"/><path class="q" d="M2045.5,891.4h0a.218.218,0,0,1-.067-.3l.134-.2a.218.218,0,0,1,.3-.067h0a.218.218,0,0,1,.067.3l-.134.2A.218.218,0,0,1,2045.5,891.4Z" transform="translate(-2042.31 -888.984)"/><path class="q" d="M2042.4,889.6h0a.219.219,0,0,1-.067-.3l.134-.2a.218.218,0,0,1,.3-.067h0a.218.218,0,0,1,.067.3l-.134.2A.212.212,0,0,1,2042.4,889.6Z" transform="translate(-2040.25 -887.788)"/><path class="q" d="M2039.4,887.8h0a.219.219,0,0,1-.067-.3l.134-.2a.219.219,0,0,1,.3-.067h0a.219.219,0,0,1,.067.3l-.134.2A.219.219,0,0,1,2039.4,887.8Z" transform="translate(-2038.256 -886.592)"/><path class="q" d="M2036.3,886h0a.219.219,0,0,1-.067-.3l.134-.2a.218.218,0,0,1,.3-.067h0a.218.218,0,0,1,.067.3l-.134.2C2036.566,886.035,2036.432,886.068,2036.3,886Z" transform="translate(-2036.196 -885.396)"/></g></g><path class="n" d="M2012.964,889.6a.827.827,0,0,0,.872-1.208,4.652,4.652,0,0,0-1.61-1.744c-1.543-.906-2.013,1.946-1.51,2.248A9.932,9.932,0,0,0,2012.964,889.6Z" transform="translate(-1980.644 -865.678)"/><path class="n" d="M1997.863,876.438l-1.912,3.22a16.861,16.861,0,0,1-4.462-1.812,13.272,13.272,0,0,1-3.019-2.214c-.3-.3-.47-.5-.47-.5l1.979-3.355a1.381,1.381,0,0,1,.7.1c2.248.637,6.877,4.294,6.877,4.294Z" transform="translate(-1965.677 -855.903)"/><path class="q" d="M1990.717,871.841l-2.248,3.791c-.3-.3-.47-.5-.47-.5l1.979-3.355A1.95,1.95,0,0,1,1990.717,871.841Z" transform="translate(-1965.677 -855.901)"/><path class="n" d="M2124.332,932.4c.1-.034,6.642,1.443,10.2,4.059l-4.5-.067-5.77-3.422C2124.231,932.969,2123.862,932.567,2124.332,932.4Z" transform="translate(-2056.117 -896.198)"/><g transform="translate(31.418 19.158)"><path class="q" d="M2038.522,885.589s-4.059,2.784-4.764,3.153a4.052,4.052,0,0,1-1.845.268h0l-6.978-1.174s-7.447-4.327-9.024-5.334h0a.935.935,0,0,0-.268-.168c-.47-.335-.637-.637-.47-.738s12.378,4.764,13.72,5.3h.033c1.308.537,1.577.268,1.577.268l6.743-1.845a.665.665,0,0,1,.369-.034A2.9,2.9,0,0,1,2038.522,885.589Z" transform="translate(-2015.111 -881.595)"/><path class="q" d="M2037.617,885.287c-1.845.57-6.944,2.113-7.38,2.181-.47.067-11.607-3.958-14.324-4.965h0a.935.935,0,0,0-.268-.168c-.47-.335-.637-.637-.47-.738s12.378,4.764,13.72,5.3,1.61.268,1.61.268l6.743-1.845A1.256,1.256,0,0,1,2037.617,885.287Z" transform="translate(-2015.111 -881.595)"/><path class="q" d="M2065.894,892.941s-4.059,2.784-4.763,3.153a4.051,4.051,0,0,1-1.845.268h0a15.925,15.925,0,0,1-2.986-2.08c1.308.537,1.577.268,1.577.268l6.743-1.845a.666.666,0,0,1,.369-.034A2.38,2.38,0,0,1,2065.894,892.941Z" transform="translate(-2042.483 -888.947)"/></g><path class="s" d="M2106.578,914.3,2089.1,903.364s9.024,2.952,10.232,2.617c1.14-.3,13.687-4.5,16.672-4.126-3.388,1.375-11.271,4.73-11.842,6.609C2103.625,910.241,2105.571,913.025,2106.578,914.3Z" transform="translate(-2032.862 -875.885)"/></g></g><g transform="translate(149.111 54.876)"><path class="d" d="M841.785,281.109c-.034-.973-.772-11.372-16.639-11.909,0,0,7.816.939,9.158,4.361,0,0-5.3-4.227-9.628-2.885S817.8,279.6,817.8,282.115c-.034,2.482,2.382,10.533,5.133,11.2a7.915,7.915,0,0,0,3.321,0,39.159,39.159,0,0,0-2.147,3.791c-6.34,12.982.2,25.7,5.569,24.287,3.422-.906,4.395,4.965,4.395,4.965l33.378-27.038C867.414,299.358,855.17,273.964,841.785,281.109Z" transform="translate(-763.018 -269.2)"/><path class="n" d="M808.5,1009.064l-7.078,2.65s-30.8-42.7-34.586-80.309a57.885,57.885,0,0,1,1.006-19.222s-.3-1.711-.839-4.764c-.235-1.409-.537-3.12-.872-5.1-1.006-5.736-2.382-13.586-3.958-22.509-3.657-20.564-8.353-46.864-11.976-66.186l1.912-.6,20.664-6.676,4.26-13.586,15.4-4.059s3.455,6.743,6.508,38.511c.57,4.16,1.073,8.755,1.476,13.754a271.339,271.339,0,0,1-1.476,55.653c-.7,5.535-1.61,11.238-2.717,17.075a76.867,76.867,0,0,0-.6,16.874C797.2,961.328,808.5,1009.064,808.5,1009.064Z" transform="translate(-718.096 -614.429)"/><path class="j" d="M800.418,840.965l-33.412,66.455c-.235-1.409-.537-3.12-.872-5.1-1.006-5.736-2.382-13.586-3.958-22.509-3.657-20.564-8.353-46.864-11.976-66.186l1.912-.6,20.664-6.676,4.26-13.586,15.4-4.059s3.455,6.743,6.508,38.511C799.513,831.4,800.016,836,800.418,840.965Z" transform="translate(-718.096 -614.429)"/><path class="n" d="M724.58,781.97l-.772-6.642c-12.949,3.455-47.6-9.628-47.6-9.628s-12.546,11.037-10.9,37.5c.805,12.915,2.281,67.8,3.824,84.033.57,5.871,1.04,10.064,1.241,11.741h0a2.226,2.226,0,0,1-.369,1.443,77.323,77.323,0,0,0-5.669,11.909c-15.062,40.155,2.315,89.6,2.315,89.6l4.529-1.812s9.9-55.049,17.947-79.37a49.75,49.75,0,0,1,3.858-9.292c3.489-5.636,6.743-14.861,9.695-25.83,5.569-20.731,10.03-47.7,13.016-68.535C716.059,817.193,724.58,781.97,724.58,781.97Z" transform="translate(-656.95 -599.144)"/><path class="i" d="M1138.1,761.914c-2.784,2.482-10.2-6-11.2-7.145a1.744,1.744,0,0,1-.1-.168l2.248-6.273s9.728-.369,11.339,1.241C1141.963,751.179,1141.158,759.3,1138.1,761.914Z" transform="translate(-968.361 -587.575)"/><path class="i" d="M982.5,602.994l-.973,6.508s-.436,0-1.174-.067c-2.348-.168-8.118-.47-14.593-1.174-9.762-.973-21.369-2.684-25.965-5.535-7.045-4.294-18.551-17.444-26.065-30.594-.2-.335-.369-.637-.537-.973-3.925-6.978-6.642-13.888-6.877-19.423a27.256,27.256,0,0,1,.906-8.789,22.587,22.587,0,0,1,3.958-7.95,3.8,3.8,0,0,1,.738-.906,19.029,19.029,0,0,1,5.1-4.361c1.275-.537,2.684.1,4.126,1.677v.067a24.361,24.361,0,0,1,3.69,5.468c.067.067.1.1.1.168.268.47.537,1.006.872,1.61a1.008,1.008,0,0,1,.2.369c.6,1.241,1.174,2.516,1.778,3.858,6.609,14.391,13.62,36.163,19.49,42.671,2.516,2.784,14.056,8.252,23.247,12.345C977.136,600.847,982.5,602.994,982.5,602.994Z" transform="translate(-821.817 -442.208)"/><path class="g" d="M844.307,478.606a40.076,40.076,0,0,1-14.928,3.489c-22.275,1.208-27.34-18.316-28.279-31.3a18.916,18.916,0,0,1,7.648-.973c1.577.1,3.22.235,4.6.4,2.717-1.409,7.615-8.353,10.466-19.926l.973.436,16.069,7.548s-1.711,5.233-2.986,10.232c-.973,3.925-1.677,7.716-1.107,8.756,1.275.5,2.013.839,2.013.839v.034A109.072,109.072,0,0,1,844.307,478.606Z" transform="translate(-751.921 -376.257)"/><path class="l" d="M777.62,531.128c-.168.436-.369.872-.57,1.342-5.636,12.144-16.1,62.53-16.1,62.53,1.476,9.057-68.031-1.778-68.233-10.03-2.449-8.755,8.688-22.778,14.961-29.822a20.187,20.187,0,0,0,4.965-11.171c1.241-11.674.772-22.644.872-29.286h0c1.241-.906,2.415-1.744,3.522-2.549a33.122,33.122,0,0,0,4.294-3.556,6.4,6.4,0,0,0,2.046-4.059,19.166,19.166,0,0,0-.1-3.388l-.2-1.61a46.5,46.5,0,0,0-3.22-10.8c5.971-2.415,16.605-.973,16.605-.973s0,.6-.034,1.543c-.034,3.891,0,13.855,1.241,15.733,1.543,2.348,30.057,12.647,31.567,9.46,1.476-3.153-2.583-17.846-2.717-18.383v-.034c9.527,3.757,12.949,6.877,12.949,6.877C773.762,506.707,782.081,519.32,777.62,531.128Z" transform="translate(-679.664 -414.154)"/><path class="i" d="M887.7,439.281s-1.711,5.233-2.986,10.232C875.324,446.9,872.472,437,871.6,431.7Z" transform="translate(-798.771 -377.188)"/><path class="g" d="M887.105,389.776s-22.476-5.2-19.021-19.155,2.885-24.019,17.377-21.3,15.968,8.756,15.934,13.687S893.043,390.782,887.105,389.776Z" transform="translate(-796.195 -322.147)"/><path class="d" d="M891.424,350.078c-2.415-5.065-5.267-4.8-7.045-3.891-10.567-9.762-20.933-1.778-20.933-1.778A27.578,27.578,0,0,1,850.8,357.995s3.455,3.522,13.486,3.455c3.053-.034,6.139-1.442,8.923-3.355a54.136,54.136,0,0,1-11.741,8.756c12.546-2.415,20.933-16.907,21.8-18.45,1.073,1.577,3.086,4.9,3.254,7.716.235,3.824-1.073,11.271,1.107,11.54C887.667,367.622,895.047,357.659,891.424,350.078Z" transform="translate(-784.948 -317.136)"/><path class="l" d="M944.839,534s5.4,9.46,6.24,11.875c0,0-7.011-.268-9.863,5.133C941.216,551.008,940.511,535.275,944.839,534Z" transform="translate(-845.005 -445.17)"/><path class="f" d="M776.839,620.074c-13.72-.134-25.327-14.391-32.439-25.763a19.686,19.686,0,0,0,2.851-8.319c1.241-11.674.772-22.644.872-29.286h0c1.241-.906,2.415-1.744,3.522-2.549a33.116,33.116,0,0,0,4.294-3.556C767.144,569.587,795.423,620.275,776.839,620.074Z" transform="translate(-714.241 -456.202)"/><path class="j" d="M690.392,1441.228H654.7s-.872-5.434,1.006-9.561c1.778-3.958,4.6-5.77,3.925-10.567,2.281,2.348,5.971,4.965,11.137,4.26.637,1.04,4.093,6.508,6.206,8.017C679.289,1435.055,689.688,1434.451,690.392,1441.228Z" transform="translate(-654.497 -1034.683)"/><path class="j" d="M918.57,1444.417H882.844s-1.342-5.7,1.006-9.561c2.08-3.422,1.275-5.367-.268-8.219a13.713,13.713,0,0,0,6,1.141,12.316,12.316,0,0,0,5.3-1.879c1.543,1.744,8.118,9.225,10.164,10.7C907.433,1438.245,917.866,1437.641,918.57,1444.417Z" transform="translate(-805.989 -1037.873)"/><g transform="translate(108.724 142.973)"><path class="j" d="M1013.354,695.4,978.6,740.62l2.818,1.946,35.19-45.186Z" transform="translate(-978.6 -695.4)"/><path class="n" d="M1022.19,701.3h35.257l-36.9,45.186H987Z" transform="translate(-984.182 -699.321)"/><path class="u" d="M1082.2,695.4h35.022l1.979,1.979h-33.747Z" transform="translate(-1047.446 -695.4)"/><path class="n" d="M1083.139,695.97h34.72l.57-.57H1082.2Z" transform="translate(-1047.446 -695.4)"/></g><path class="g" d="M858.124,588.933c-.1-1.812-2.482-1.711-4.26-1.711-2.952,0-7.615-.2-10.3-1.241,0,0,8.621-.134,6.776-2.851-.336-.5-4.629-.134-9.393-.134-1.946,0-6.81,2.684-6.542,2.818-3.455-.47-6.609-1.141-7.615-1.342h0c-2.348-1.275-5.2-2.851-8.219-4.562a241.884,241.884,0,0,1-21.235-13.184c-3.287-2.348-5.736-4.462-6.609-5.971a72.831,72.831,0,0,1-4.5-10.466c-.872-2.348-1.778-4.931-2.684-7.682-1.61-4.5-3.22-9.393-4.9-14.257-3.019-8.923-6.24-17.88-9.292-24.79a48.057,48.057,0,0,0-5.736-10.131c-1.443-1.778-2.851-2.684-4.193-2.482-.2.067-.369.1-.537.168,0,0-7.716,2.147-7.85,17.712a19.178,19.178,0,0,0,.067,2.751,56.934,56.934,0,0,0,1.443,9.728,144.83,144.83,0,0,0,6.105,20.4c.738,1.946,1.51,3.925,2.315,5.9,5.8,14.391,13.251,27.81,19.524,32.372.268.2.47.369.738.537a57.079,57.079,0,0,0,10.936,4.9c6.34,2.147,13.854,4.093,20.564,5.7h.067c3.925.872,7.514,1.677,10.533,2.248,0,0,.5.134,1.375.3a1.682,1.682,0,0,0,.4.067,121.819,121.819,0,0,1,14.223,4.361,14.271,14.271,0,0,0,16-3.422C856.916,592.824,858.191,590.577,858.124,588.933Z" transform="translate(-718.639 -416.54)"/><path class="l" d="M769.283,503.559C758.95,500.708,751,508.792,751,508.792c.134-15.532,7.85-17.679,7.85-17.679C761.97,489.805,765.559,495.206,769.283,503.559Z" transform="translate(-718.627 -416.541)"/></g><g transform="translate(297.956 262.659)"><g transform="translate(92.537)"><path class="v" d="M1429.083,957.971c-4.227-3.791-.738-12.747-2.348-14.525a13.674,13.674,0,0,0-1.644-1.308,41.348,41.348,0,0,1-5.8,13.083c-9.594,14.391-25.763,20.5-36.129,13.586-10.1-6.709-10.969-23.247-2.214-37.4.235-.4.5-.805.772-1.174a41.347,41.347,0,0,1,9.762-10.366l.034-.034a6.191,6.191,0,0,0-1.073-.537c-2.247-.805-9.158,5.871-14.291,3.455s-.436-12.211,9.695-13.351c6.173-.7,12.714,2.482,16.874,5.1a23.9,23.9,0,0,1,5.468-.671h.2a13.856,13.856,0,0,1,1.744-11.674,14.114,14.114,0,0,1,2.851-3.12.033.033,0,0,0-.034-.034,7.065,7.065,0,1,1,13.217-2.315,14.024,14.024,0,0,1,5.7,3.69,7.069,7.069,0,1,1,3.254,13.184,13.924,13.924,0,0,1-11.271,10.1,22.21,22.21,0,0,1,1.946,6.24c4.026,2.751,10.1,7.749,11.942,14.089C1440.522,953.677,1433.277,961.761,1429.083,957.971Z" transform="translate(-1374.052 -888.596)"/><path class="w" d="M1394.5,993.317c.235-.4.5-.805.771-1.174a41.352,41.352,0,0,1,9.762-10.366c1.073-.067,2.181.134,2.55,1.241.872,2.449-7.313,10.1-6.609,14.458C1401.511,1000.731,1396.781,996.068,1394.5,993.317Z" transform="translate(-1387.64 -950.511)"/><path class="w" d="M1480.88,937.95a38.052,38.052,0,0,1-6.038-3.522h.2a13.856,13.856,0,0,1,1.744-11.674,14.108,14.108,0,0,1,2.851-3.12.033.033,0,0,0-.034-.034c.134.067.2.235.134.637-.268,1.51-4.093,12.177,2.147,16.706C1481.886,936.943,1482.826,938.822,1480.88,937.95Z" transform="translate(-1440.776 -909.2)"/><path class="x" d="M1550.9,931.613s3.623-1.107,4.864,1.375c1.275,2.482-1.174,5.434-3.12,4.965A15.921,15.921,0,0,0,1550.9,931.613Z" transform="translate(-1491.574 -917.019)"/><path class="x" d="M1508.255,902.6s-1.443-3.958-4.126-3.724c-2.65.235-2.046,4.5-2.046,4.5S1505.706,902.1,1508.255,902.6Z" transform="translate(-1459.094 -895.424)"/></g><g transform="translate(50.712 12.71)"><path class="y" d="M1258.506,959.968s-9.058-11.674-9.125-21.2.2-12.68,1.812-12.244c1.577.436,8.755,5.736,11.3,11.037,2.583,5.3,7.078,19.121,7.179,21S1258.506,959.968,1258.506,959.968Z" transform="translate(-1249.373 -926.483)"/><path class="z" d="M1266.006,970.078s-5.77-8.051-6-14.492-.1-8.588.872-8.252,5.468,4.059,7.145,7.682,4.73,13.083,4.8,14.358C1272.95,970.615,1266.006,970.078,1266.006,970.078Z" transform="translate(-1256.369 -940.317)"/><g transform="translate(20.743 5.346)"><path class="y" d="M1314.224,967.6s-4.327-15.8-2.617-20.128c1.711-4.294,10.6-1.442,11.607,1.61,1.006,3.019.4,15.834.4,15.834Z" transform="translate(-1311.207 -944.328)"/><path class="z" d="M1323.431,957.6s-.637,12.546,1.577,17.41l4.227-1.208s.637-13.989.1-14.928C1328.732,957.935,1323.431,957.6,1323.431,957.6Z" transform="translate(-1319.274 -952.508)"/><path class="y" d="M1311.6,946.473s14.592,9.661,15.766,8.655-3.254-10.835-5-11.708C1320.656,942.514,1311.5,940.7,1311.6,946.473Z" transform="translate(-1311.467 -942.42)"/></g></g><g transform="translate(0 34.587)"><rect class="aa" width="199.028" height="164.107" transform="translate(243.746 164.125) rotate(180)"/><rect class="ab" width="199.028" height="164.107" transform="translate(144.248)"/><path class="ac" d="M1727.228,991.7v112.58L1528.2,1155.807V991.7Z" transform="translate(-1383.952 -991.7)"/><path class="ab" d="M1528.2,991.7l39.383,43.174h196.378L1727.228,991.7Z" transform="translate(-1383.952 -991.7)"/><path class="ab" d="M1231.9,1326.73h31.533l-2.784-8.89,2.784-6.34H1231.9Z" transform="translate(-1187.049 -1204.22)"/><path class="ac" d="M2059.133,1410.63H2027.6l2.784-8.89-2.784-6.34h31.533Z" transform="translate(-1715.823 -1259.975)"/><path class="ad" d="M1331.3,1010.251l-41.966,41.966H1231.9V991.7h99.4Z" transform="translate(-1187.049 -991.7)"/><path class="ab" d="M1142.95,991.7l-44.75,43.174h99.565l44.683-43.174Z" transform="translate(-1098.2 -991.7)"/></g><g transform="translate(158.169 97.922)"><path class="ab" d="M1569.7,1214.138V1181.8h9.963a15.64,15.64,0,0,1,5.971,1.107,13.651,13.651,0,0,1,4.663,3.153,13.867,13.867,0,0,1,3.019,4.864,17.164,17.164,0,0,1,1.073,6.307v1.476a18.03,18.03,0,0,1-1.073,6.307,13.942,13.942,0,0,1-3.053,4.864,13.785,13.785,0,0,1-4.7,3.153,15.813,15.813,0,0,1-6,1.107H1569.7Zm6.642-26.937v21.57h3.22a7.16,7.16,0,0,0,6-2.617c1.375-1.744,2.08-4.227,2.08-7.447v-1.51c0-3.287-.671-5.77-2.046-7.481a7.187,7.187,0,0,0-5.971-2.549h-3.288Z" transform="translate(-1569.7 -1181.364)"/><path class="ab" d="M1682.408,1197.843a20.32,20.32,0,0,1-1.006,6.642,14.8,14.8,0,0,1-2.818,5,12.22,12.22,0,0,1-4.327,3.153,14.559,14.559,0,0,1-11.137,0,12.342,12.342,0,0,1-4.361-3.153,14.55,14.55,0,0,1-2.851-5,20.463,20.463,0,0,1-1.006-6.642v-1.409a20.609,20.609,0,0,1,1.006-6.642,14.648,14.648,0,0,1,2.818-5.032,12.05,12.05,0,0,1,4.361-3.153,14.561,14.561,0,0,1,11.137,0,12.343,12.343,0,0,1,4.361,3.153,14.648,14.648,0,0,1,2.818,5.032,20.609,20.609,0,0,1,1.006,6.642Zm-6.743-1.476c0-3.388-.6-5.971-1.812-7.715a6.426,6.426,0,0,0-10.4,0c-1.208,1.778-1.812,4.328-1.812,7.715v1.476a19.586,19.586,0,0,0,.47,4.462,9.34,9.34,0,0,0,1.375,3.254,6.326,6.326,0,0,0,2.214,2.013,6.626,6.626,0,0,0,2.986.671,5.849,5.849,0,0,0,5.166-2.65q1.812-2.667,1.812-7.749Z" transform="translate(-1626.319 -1180.5)"/><path class="ab" d="M1777.534,1214.138h-6.676l-12.982-21.268v21.268H1751.2V1181.8h6.676l12.982,21.3v-21.3h6.642v32.338Z" transform="translate(-1690.314 -1181.364)"/><path class="ab" d="M1861.166,1207.463h-11.674l-2.214,6.676H1840.2l12.043-32.338h6.172l12.11,32.338h-7.078Zm-9.9-5.367h8.085l-4.059-12.11Z" transform="translate(-1749.458 -1181.364)"/><path class="ab" d="M1951.934,1187.2h-9.9v26.938h-6.676V1187.2H1925.6v-5.4h26.333Z" transform="translate(-1806.21 -1181.364)"/><path class="ab" d="M2034.857,1200.116h-12.781v8.655h15v5.367H2015.4V1181.8h21.637v5.4h-14.962v7.716h12.781Z" transform="translate(-1865.885 -1181.364)"/></g></g><g transform="translate(247.267 352.161)"><g transform="translate(27.861 19.255)"><path class="ae" d="M1048.586,1259.528l-3.623.7a7.988,7.988,0,0,1-9.326-6.307l-5.334-27.44a7.941,7.941,0,0,1,5.2-9.024.983.983,0,0,1-.067-.3l-.3-1.61a2.061,2.061,0,0,1,1.644-2.415l1.61-.3a2.112,2.112,0,0,1,2.449,1.644l.3,1.61a.5.5,0,0,1,.033.235v.033a8.04,8.04,0,0,1,8.454,6.407l5.334,27.441A8.13,8.13,0,0,1,1048.586,1259.528Z" transform="translate(-1030.153 -1212.798)"/><rect class="n" width="19.624" height="19.222" transform="matrix(0.982, -0.191, 0.191, 0.982, 0.437, 15.263)"/><path class="q" d="M1050.837,1216.287l-5.636,1.174a.983.983,0,0,1-.067-.3l-.3-1.61a2.061,2.061,0,0,1,1.644-2.415l1.61-.3a2.112,2.112,0,0,1,2.449,1.644l.3,1.61Z" transform="translate(-1039.885 -1212.798)"/></g><g transform="translate(112.816 11.27)"><path class="af" d="M1354.049,1193.526s-2.382,3.355-4.562,3.422-5.5-1.543-5.5-1.543-2.013-4.462-.637-6.24a2.88,2.88,0,0,1,2.784.47,3.577,3.577,0,0,1,.738.7,2.475,2.475,0,0,0,1.141.772c1.577.47,3.422-.637,4.093.436a6.98,6.98,0,0,0,1.208,1.442A5.175,5.175,0,0,0,1354.049,1193.526Z" transform="translate(-1322.918 -1188.995)"/><path class="af" d="M1283.4,1233.532s8.42-20.429,23.616-20.832c0,0,14.022,1.543,14.794,20.832Z" transform="translate(-1283.4 -1204.748)"/><path class="ab" d="M1341.349,1209.292s6.072,1.342,7.95.57c0,0,.268-2.55-2.281-2.181a5.447,5.447,0,0,1-3.556-.939C1342.523,1206.24,1341.114,1208.252,1341.349,1209.292Z" transform="translate(-1321.892 -1200.736)"/><path class="ag" d="M1354.077,1194.926c-.4.3-1.577-4.126-1.577-4.126a3.574,3.574,0,0,1,.738.7,2.474,2.474,0,0,0,1.141.771C1354.379,1192.41,1354.479,1194.658,1354.077,1194.926Z" transform="translate(-1329.32 -1190.195)"/><path class="ag" d="M1367.4,1198.009a22.978,22.978,0,0,1-3.287,1.744c-.4,0,2.08-3.153,2.08-3.153A7.653,7.653,0,0,0,1367.4,1198.009Z" transform="translate(-1337.007 -1194.049)"/><path class="ag" d="M1307.993,1239.688c-.168-.134,5.971-9.024,7.648-9.091s5.468,1.946,8.219,2.214,5.4-.5,5.938,1.107,1.946,7.38,1.073,8.286S1311.348,1242.573,1307.993,1239.688Z" transform="translate(-1299.741 -1216.64)"/></g><g transform="translate(0 20.966)"><path class="z" d="M1010.374,1252.486a2.843,2.843,0,0,1-.973,1.107,3.348,3.348,0,0,1-.7.335,2.841,2.841,0,0,1-2.214-.168l-37.806-19.222a2.9,2.9,0,0,1,.4-5.334,2.842,2.842,0,0,1,2.214.168l37.806,19.222A2.878,2.878,0,0,1,1010.374,1252.486Z" transform="translate(-960.39 -1225.314)"/><path class="e" d="M992.387,1243l-2.415-7.682-6.072-3.12,3.656,8.386Z" transform="translate(-971.555 -1227.403)"/><path class="e" d="M1019.887,1257l-4.8-2.449-3.69-8.353,6.105,3.086Z" transform="translate(-989.83 -1236.706)"/><path class="e" d="M1047.387,1271l-4.8-2.449-3.69-8.353,6.105,3.086Z" transform="translate(-1008.104 -1246.01)"/><path class="e" d="M1075.789,1283.726a3.357,3.357,0,0,1-.7.335,2.842,2.842,0,0,1-2.214-.168l-2.214-1.141L1067,1274.4l6.105,3.086Z" transform="translate(-1026.778 -1255.447)"/><path class="e" d="M954.11,1223.234s-.772-4.126-4.093-5.334c0,0,.4.47-1.208.973s-1.141,1.61-1.711,2.113C947.066,1221.02,949.38,1224.106,954.11,1223.234Z" transform="translate(-947.099 -1217.9)"/><path class="q" d="M965.318,1231.495l-.1-.033a.513.513,0,0,1-.235-.7l.47-.939a.513.513,0,0,1,.7-.235l.1.034a.513.513,0,0,1,.235.7l-.47.939A.521.521,0,0,1,965.318,1231.495Z" transform="translate(-958.944 -1225.624)"/><path class="e" d="M1095.6,1297.2s3.757-1.812,6.743.168c0,0-.6-.033-.067,1.577s-.637,1.878-.7,2.65A7.451,7.451,0,0,1,1095.6,1297.2Z" transform="translate(-1045.784 -1270.094)"/><path class="q" d="M1094.918,1297.361l.1.033a.513.513,0,0,0,.7-.235l.47-.939a.513.513,0,0,0-.235-.7l-.1-.034a.513.513,0,0,0-.7.235l-.47.939A.513.513,0,0,0,1094.918,1297.361Z" transform="translate(-1045.135 -1269.417)"/></g><g transform="translate(70.143)"><path class="ab" d="M1191.313,1216.363a3.088,3.088,0,0,1-1.409.4,3.305,3.305,0,0,1-.805-.1,2.906,2.906,0,0,1-1.744-1.342l-21.235-36.733a2.9,2.9,0,0,1,1.04-3.958,2.963,2.963,0,0,1,2.18-.3,2.907,2.907,0,0,1,1.744,1.342l21.235,36.733A2.806,2.806,0,0,1,1191.313,1216.363Z" transform="translate(-1162.528 -1167.923)"/><path class="af" d="M1182.584,1196.387l2.214-7.749-3.422-5.938-1.476,9.024Z" transform="translate(-1171.947 -1173.542)"/><path class="af" d="M1198.017,1223.153l-2.717-4.663,1.51-8.99,3.388,5.9Z" transform="translate(-1182.181 -1191.352)"/><path class="af" d="M1213.484,1249.853l-2.684-4.663,1.476-8.99,3.422,5.9Z" transform="translate(-1192.482 -1209.095)"/><path class="af" d="M1230.391,1276.013a3.305,3.305,0,0,1-.805-.1,2.906,2.906,0,0,1-1.744-1.342l-1.241-2.147,1.476-9.024,3.422,5.9Z" transform="translate(-1202.981 -1227.17)"/><path class="ab" d="M1160.858,1162.109s1.61-3.858-.537-6.709c0,0,.067.6-1.543.168s-1.845.738-2.583.839A7.04,7.04,0,0,0,1160.858,1162.109Z" transform="translate(-1156.193 -1155.4)"/><path class="aa" d="M1167.4,1172.909l-.033-.1a.509.509,0,0,1,.2-.7l.906-.537a.509.509,0,0,1,.7.2l.034.1a.509.509,0,0,1-.2.7l-.906.537A.509.509,0,0,1,1167.4,1172.909Z" transform="translate(-1163.574 -1166.099)"/><path class="ab" d="M1241.649,1299.4s4.16.537,5.535,3.791c0,0-.5-.369-.906,1.275-.436,1.644-1.543,1.241-2.013,1.811A7.079,7.079,0,0,1,1241.649,1299.4Z" transform="translate(-1212.932 -1251.094)"/><path class="aa" d="M1240.138,1298.822l.033.1a.54.54,0,0,0,.7.2l.906-.537a.54.54,0,0,0,.2-.7l-.034-.1a.539.539,0,0,0-.7-.2l-.906.537A.478.478,0,0,0,1240.138,1298.822Z" transform="translate(-1211.923 -1249.845)"/></g><g transform="translate(25.831 9.091)"><path class="q" d="M1034.038,1245.381a3,3,0,0,1-1.073-.973,2.935,2.935,0,0,1-.335-.738,2.852,2.852,0,0,1,.2-2.214l19.826-37.5a2.921,2.921,0,0,1,3.925-1.208,2.921,2.921,0,0,1,1.208,3.925l-19.826,37.5A2.921,2.921,0,0,1,1034.038,1245.381Z" transform="translate(-1029.677 -1195.733)"/><path class="ah" d="M1073,1227.686l7.749-2.247,3.187-6.038-8.42,3.522Z" transform="translate(-1056.596 -1207.022)"/><path class="ah" d="M1058.6,1254.986l2.516-4.763,8.42-3.522-3.187,6.038Z" transform="translate(-1047.027 -1225.163)"/><path class="ah" d="M1044.2,1282.286l2.516-4.763,8.42-3.522-3.22,6.038Z" transform="translate(-1037.457 -1243.305)"/><path class="ah" d="M1032.964,1310.388a2.934,2.934,0,0,1-.335-.738,2.852,2.852,0,0,1,.2-2.214l1.174-2.214,8.42-3.522-3.187,6.038Z" transform="translate(-1029.677 -1261.713)"/><path class="ah" d="M1104.037,1189.511s4.126-.7,5.4-4.026c0,0-.47.369-.973-1.241s-1.61-1.174-2.08-1.744A7.182,7.182,0,0,0,1104.037,1189.511Z" transform="translate(-1077.133 -1182.5)"/><path class="q" d="M1102.581,1200.769l.034-.1a.5.5,0,0,1,.7-.2l.906.47a.5.5,0,0,1,.2.7l-.034.1a.5.5,0,0,1-.7.2l-.906-.47A.54.54,0,0,1,1102.581,1200.769Z" transform="translate(-1076.214 -1194.395)"/><path class="q" d="M1028.562,1330s1.744,3.791-.268,6.709c0,0,.033-.6-1.577-.1s-1.879-.671-2.617-.738A7.183,7.183,0,0,1,1028.562,1330Z" transform="translate(-1024.1 -1280.52)"/><path class="q" d="M1034.615,1329.282l-.034.1a.53.53,0,0,0,.2.7l.906.47a.53.53,0,0,0,.7-.2l.034-.1a.53.53,0,0,0-.2-.7l-.906-.47A.539.539,0,0,0,1034.615,1329.282Z" transform="translate(-1031.025 -1279.869)"/></g><g transform="translate(64.476 21.347)"><path class="e" d="M1155.1,1222.344s1.744,2.449,3.321,2.482a11.531,11.531,0,0,0,3.992-1.141s1.443-3.254.47-4.529a2.09,2.09,0,0,0-2.013.335,3.692,3.692,0,0,0-.537.5,1.714,1.714,0,0,1-.839.57c-1.141.335-2.482-.47-2.986.3a4.871,4.871,0,0,1-.872,1.04A2.868,2.868,0,0,1,1155.1,1222.344Z" transform="translate(-1149.8 -1219.034)"/><path class="e" d="M1167.177,1251.329s-6.105-14.827-17.142-15.129c0,0-10.164,1.141-10.735,15.129Z" transform="translate(-1139.3 -1230.442)"/><path class="ai" d="M1168.957,1233.827s-4.428.973-5.77.4c0,0-.2-1.845,1.644-1.577a3.983,3.983,0,0,0,2.583-.671C1168.085,1231.613,1169.125,1233.056,1168.957,1233.827Z" transform="translate(-1155.17 -1227.599)"/><path class="ai" d="M1168.432,1223.386c.268.2,1.141-2.986,1.141-2.986a3.684,3.684,0,0,0-.537.5,1.714,1.714,0,0,1-.839.57C1168.2,1221.574,1168.164,1223.184,1168.432,1223.386Z" transform="translate(-1158.503 -1219.942)"/><path class="ai" d="M1156.7,1225.706a19.527,19.527,0,0,0,2.382,1.275c.268,0-1.51-2.281-1.51-2.281A6.717,6.717,0,0,1,1156.7,1225.706Z" transform="translate(-1150.863 -1222.799)"/><path class="ai" d="M1171.3,1255.9c.1-.1-4.328-6.542-5.569-6.609s-3.958,1.409-5.971,1.61c-1.979.2-3.925-.369-4.294.805s-1.409,5.334-.772,6S1168.856,1257.984,1171.3,1255.9Z" transform="translate(-1149.399 -1239.143)"/></g><g transform="translate(90.385 20.597)"><path class="ae" d="M1239.838,1225.917h0c-1.812.034-2.751-2.717-2.751-2.717l-17.746,5.367a3.472,3.472,0,0,1-.5,3.455s-3.086,2.046-2.113,5.2l3.925,12.982a4.363,4.363,0,0,0,5.434,2.919l18.719-5.669a4.363,4.363,0,0,0,2.919-5.434l-3.925-12.982A4.316,4.316,0,0,0,1239.838,1225.917Z" transform="translate(-1216.535 -1221.052)"/><g transform="translate(1.006)"><path class="ai" d="M1219.6,1225.239l1.073,3.522c.369,1.275,5.233.939,10.869-.771,5.6-1.711,9.863-4.093,9.46-5.367l-1.073-3.522Z" transform="translate(-1219.578 -1218.328)"/><path class="e" d="M1239.884,1217.571c.369,1.275-3.858,3.69-9.46,5.367-5.6,1.711-10.466,2.046-10.869.772-.369-1.275,3.858-3.69,9.46-5.367C1234.618,1216.631,1239.482,1216.3,1239.884,1217.571Z" transform="translate(-1219.533 -1216.798)"/></g></g><g transform="translate(44.269 25.32)"><path class="aj" d="M1100.848,1241.867h0c-1.275-.6-.939-2.851-.939-2.851l-14.19-2.415a2.745,2.745,0,0,1-1.543,2.214s-2.851.369-3.288,2.885l-1.778,10.366a3.433,3.433,0,0,0,2.784,3.925l14.962,2.549a3.433,3.433,0,0,0,3.925-2.784l1.778-10.366A3.433,3.433,0,0,0,1100.848,1241.867Z" transform="translate(-1079.065 -1234.681)"/><g transform="translate(5.138)"><path class="ad" d="M1094.858,1233.5l-.469,2.818c-.168,1.006,3.321,2.449,7.816,3.22s8.252.57,8.454-.47l.47-2.818Z" transform="translate(-1094.383 -1232.62)"/><path class="ab" d="M1111.958,1234.542c-.168,1.006-3.958,1.208-8.454.469-4.5-.771-7.984-2.214-7.816-3.22s3.958-1.208,8.454-.47C1108.637,1232.093,1112.126,1233.536,1111.958,1234.542Z" transform="translate(-1095.247 -1230.878)"/></g></g><g transform="translate(1.074 36.699)"><rect class="aa" width="87.924" height="72.493" transform="translate(107.674 72.509) rotate(180)"/><rect class="ab" width="87.924" height="72.493" transform="translate(151.651 72.509) rotate(180)"/><path class="ac" d="M1140.2,1264.8h88.159v49.682l-88.159,22.811Z" transform="translate(-1076.496 -1264.8)"/><path class="ab" d="M1140.2,1264.8l17.41,19.088h86.75l-16.236-19.088Z" transform="translate(-1076.496 -1264.8)"/><path class="ab" d="M1009.3,1412.809h13.955l-1.241-3.925,1.241-2.784H1009.3Z" transform="translate(-989.508 -1358.699)"/><path class="ad" d="M1053.212,1272.985l-18.517,18.551H1009.3V1264.8h43.912Z" transform="translate(-989.508 -1264.8)"/><path class="ab" d="M970.059,1264.8,950.3,1283.888h43.979L1014,1264.8Z" transform="translate(-950.3 -1264.8)"/></g><g transform="translate(70.95 64.677)"><path class="ab" d="M1158.6,1363.091V1348.8h4.395a6.784,6.784,0,0,1,2.65.5,5.876,5.876,0,0,1,2.046,1.409,6.659,6.659,0,0,1,1.342,2.147,7.468,7.468,0,0,1,.47,2.784v.637a8.214,8.214,0,0,1-.47,2.784,6.134,6.134,0,0,1-1.342,2.147,5.5,5.5,0,0,1-2.08,1.375,6.781,6.781,0,0,1-2.65.5H1158.6Zm2.919-11.909v9.527h1.409a3.137,3.137,0,0,0,2.65-1.141,5.251,5.251,0,0,0,.906-3.288v-.671a5.122,5.122,0,0,0-.906-3.288,3.211,3.211,0,0,0-2.65-1.107h-1.409Z" transform="translate(-1158.6 -1348.599)"/><path class="ab" d="M1208.51,1355.849a8.957,8.957,0,0,1-.436,2.952,6.445,6.445,0,0,1-1.241,2.214,5.168,5.168,0,0,1-1.912,1.375,5.9,5.9,0,0,1-2.449.47,6.5,6.5,0,0,1-2.449-.47,5.577,5.577,0,0,1-1.912-1.375,6.5,6.5,0,0,1-1.275-2.214,8.957,8.957,0,0,1-.436-2.952v-.637a8.752,8.752,0,0,1,.436-2.918,6.776,6.776,0,0,1,1.241-2.214,5.672,5.672,0,0,1,1.912-1.409,5.908,5.908,0,0,1,2.449-.47,6.374,6.374,0,0,1,2.449.47,5.67,5.67,0,0,1,1.912,1.409,6.448,6.448,0,0,1,1.241,2.214,8.892,8.892,0,0,1,.436,2.918v.637Zm-2.986-.637a5.993,5.993,0,0,0-.805-3.422,2.643,2.643,0,0,0-2.281-1.174,2.6,2.6,0,0,0-2.281,1.174,6,6,0,0,0-.8,3.422v.637a8.772,8.772,0,0,0,.2,1.979,4.353,4.353,0,0,0,.6,1.442,2.661,2.661,0,0,0,.973.872,2.786,2.786,0,0,0,1.308.3,2.6,2.6,0,0,0,2.281-1.174,5.993,5.993,0,0,0,.805-3.422Z" transform="translate(-1183.72 -1348.2)"/><path class="ab" d="M1250.34,1363.091h-2.952l-5.736-9.393v9.393H1238.7V1348.8h2.952l5.736,9.427V1348.8h2.918v14.291Z" transform="translate(-1211.83 -1348.599)"/><path class="ab" d="M1287.359,1360.139h-5.166l-.973,2.952h-3.12l5.3-14.291h2.717l5.334,14.291h-3.12Zm-4.361-2.382h3.556l-1.812-5.334Z" transform="translate(-1238.012 -1348.599)"/><path class="ab" d="M1327.441,1351.182h-4.361v11.909h-2.952v-11.909H1315.8V1348.8h11.64v2.382Z" transform="translate(-1263.066 -1348.599)"/><path class="ab" d="M1364.154,1356.818h-5.636v3.824h6.642v2.348H1355.6V1348.7h9.561v2.382h-6.609v3.388h5.636v2.348Z" transform="translate(-1289.514 -1348.532)"/></g></g><path class="ak" d="M528.664,1267.393s-17.612-89.8-47.635-86.113C451,1184.937,528.664,1267.393,528.664,1267.393Z" transform="translate(-385.523 -820.364)"/><path class="al" d="M482.262,1376.012s-27.743-33.11-52.432-23.247C405.173,1362.594,464.785,1360.145,482.262,1376.012Z" transform="translate(-352.171 -933.177)"/><path class="ak" d="M2139.9,1222.587s11.037-61.087,20.53-50.52S2139.9,1222.587,2139.9,1222.587Z" transform="translate(-1492.496 -813.498)"/><path class="al" d="M2151.9,1296.8s18.954-30.091,25.629-20.228C2184.238,1286.4,2151.9,1296.8,2151.9,1296.8Z" transform="translate(-1500.47 -882.44)"/></g></g></svg>