<svg enable-background="new 0 0 128 128" viewBox="0 0 128 128" xmlns="http://www.w3.org/2000/svg"><g fill="#29c581"><path d="m123 0h-86.4c-2.8 0-5.1 2.3-5.1 5.1v26.3h-26.4c-2.8 0-5.1 2.3-5.1 5.1v86.3c0 2.8 2.3 5.1 5.1 5.1h86.3c2.8 0 5.1-2.3 5.1-5.1v-26.1h26.3c2.8 0 5.1-2.3 5.1-5.1v-86.3c.2-3-2.1-5.3-4.9-5.3zm-36.7 117.7h-76v-75.9h21.2v49.6c0 2.8 2.3 5.1 5.1 5.1h49.6v21.2zm31.4-31.4h-75.9v-75.9h75.9z"/><path d="m58.5 53.5h16.2v16.2c0 .9.8 1.8 1.8 1.8h6.9c.9 0 1.8-.8 1.8-1.8v-16.2h16.2c.9 0 1.8-.8 1.8-1.8v-6.9c0-.9-.8-1.8-1.8-1.8h-16.3v-16c0-.9-.8-1.8-1.8-1.8h-6.9c-.9 0-1.8.8-1.8 1.8v16.2h-16.1c-.9 0-1.8.8-1.8 1.8v6.9c0 .8.8 1.6 1.8 1.6z"/></g></svg>