<svg enable-background="new 0 0 500 500" viewBox="0 0 500 500" xmlns="http://www.w3.org/2000/svg"><g fill="#f82626"><path d="m463.9 71.6h-97.7l-19.4-38.2c-10.3-20.7-31.5-33.7-54.6-33.4h-85.6c-23.1-.3-44.3 12.7-54.6 33.4l-18.8 38.2h-97.7c-13.4 0-24.3 10.9-24.3 24.3s10.9 24.3 24.3 24.3h34v294.8c0 46.9 38 85 85 85h191.1c46.9 0 85-38 85-85v-294.9h34c13.4 0 24.3-10.9 24.3-24.3s-10.9-24.3-24.3-24.3h-.7zm-268.2-16.4c2.1-4.1 6.3-6.7 10.9-6.7h86.2c4.6 0 8.8 2.6 10.9 6.7l7.9 16.4h-123.8zm186.3 359.8c0 20.1-16.3 36.4-36.4 36.4h-191.8c-20.1 0-36.4-16.3-36.4-36.4v-294.9h264.6z"/><path d="m303.1 401.7c13.4 0 24.3-10.9 24.3-24.3v-177.8c0-13.4-10.9-24.3-24.3-24.3s-24.3 10.9-24.3 24.3v177.8c0 13.4 10.9 24.3 24.3 24.3z"/><path d="m196.3 401.7c13.4 0 24.3-10.9 24.3-24.3v-177.8c0-13.4-10.9-24.3-24.3-24.3s-24.3 10.9-24.3 24.3v177.8c0 13.4 10.9 24.3 24.3 24.3z"/></g></svg>