<svg enable-background="new 0 0 500 500" viewBox="0 0 500 500" xmlns="http://www.w3.org/2000/svg"><g clip-rule="evenodd" fill="#1dc27a" fill-rule="evenodd" transform="translate(5 2)"><path d="m350.3 498h-307.6c-24.2 0-43.8-19.6-43.8-43.8v-307.6c0-24.2 19.9-43.8 44-43.8h251.9l-43.9 43.9h-208.1v307.4h307.4v-220.4l43.9-43.9v264.4c0 24.2-19.6 43.8-43.8 43.8z"/><path d="m450.5 102.1-62.1-62.1-186.3 186.3 62.1 62.1zm-206.6 204.7-64.8 18.2c-8.3 2.3-15.9-5.3-13.5-13.5l18.2-64.8c.5-1.8 1.5-3.5 2.8-4.8l62.1 62.1c-1.3 1.3-3 2.3-4.8 2.8zm245.4-243.5c4.3-4.3 4.3-11.2 0-15.5l-46.5-46.6c-4.3-4.3-11.2-4.3-15.5 0l-23.3 23.3 62 62.1z"/></g></svg>