<svg enable-background="new 0 0 128 128" viewBox="0 0 128 128" xmlns="http://www.w3.org/2000/svg"><g fill="#2ec2fa"><path d="m123 0h-86.3c-2.8 0-5.1 2.3-5.1 5.1v26.3h-26.5c-2.8 0-5.1 2.3-5.1 5.1v86.3c0 2.8 2.3 5.1 5.1 5.1h86.3c2.8 0 5.1-2.3 5.1-5.1v-26.1h26.3c2.8 0 5.1-2.3 5.1-5.1v-86.3c.2-3-2.1-5.3-4.9-5.3zm-36.7 117.7h-75.9v-75.9h21.2v49.6c0 2.8 2.3 5.1 5.1 5.1h49.6zm31.4-31.4h-75.9v-75.9h75.9z"/><path d="m74.5 49.7 16.5-16.6c2-2 5.1-2 7.1 0s2 5.1 0 7.1l-16.5 16.6h8c2.8 0 5 2.3 5 5s-2.3 5-5 5h-20.2c-2.8 0-5-2.3-5-5v-20.1c0-2.8 2.3-5 5-5s5 2.3 5 5v8z"/></g></svg>