<svg height="16" viewBox="0 0 16 16" width="16" xmlns="http://www.w3.org/2000/svg"><g fill="#2f323d"><path d="m12.937 4.648a.313.313 0 0 0 .313-.312v-3.398a.939.939 0 0 0 -.938-.938h-11.375a.939.939 0 0 0 -.937.938v14.125a.939.939 0 0 0 .937.937h11.375a.939.939 0 0 0 .938-.937v-2.3a.313.313 0 0 0 -.625 0v2.3a.313.313 0 0 1 -.312.313h-11.376a.313.313 0 0 1 -.312-.312v-14.126a.313.313 0 0 1 .312-.313h11.375a.313.313 0 0 1 .313.313v3.4a.313.313 0 0 0 .312.31z"/><path d="m6.625 1.688a2.874 2.874 0 0 0 -1.972 4.965.309.309 0 0 0 .034.031 2.87 2.87 0 0 0 3.878 0 .312.312 0 0 0 .034-.031 2.874 2.874 0 0 0 -1.974-4.965zm0 5.125a2.238 2.238 0 0 1 -1.359-.458 1.562 1.562 0 0 1 2.718 0 2.238 2.238 0 0 1 -1.359.458zm-.5-2.375v-.2a.5.5 0 1 1 1 0v.2a.5.5 0 0 1 -1 0zm2.311 1.459a2.168 2.168 0 0 0 -.921-.772 1.119 1.119 0 0 0 .235-.687v-.2a1.125 1.125 0 1 0 -2.25 0v.2a1.119 1.119 0 0 0 .235.687 2.168 2.168 0 0 0 -.921.772 2.25 2.25 0 1 1 3.621 0zm-.124 7.791h-1.687a.313.313 0 0 0 0 .625h1.688a.313.313 0 1 0 0-.625zm0-1.75h-4.437a.313.313 0 0 0 0 .625h4.438a.313.313 0 1 0 0-.625zm0-1.75h-4.437a.313.313 0 0 0 0 .625h4.438a.313.313 0 1 0 0-.625zm-5.551-1.658a.312.312 0 1 0 .092.221.315.315 0 0 0 -.092-.221zm0 1.75a.312.312 0 1 0 .092.221.316.316 0 0 0 -.092-.221zm0 1.75a.312.312 0 1 0 .092.221.316.316 0 0 0 -.092-.221zm5.551-3.592h-4.437a.313.313 0 0 0 0 .625h4.438a.313.313 0 1 0 0-.625zm7.031-4.365a1.312 1.312 0 0 0 -1.793.48l-3.933 6.811a.313.313 0 0 0 -.04.122l-.277 2.48a.312.312 0 0 0 .5.286l2.009-1.48a.312.312 0 0 0 .085-.1l3.933-6.811a1.314 1.314 0 0 0 -.484-1.788zm-5.342 9.252.145-1.295.9.522zm1.5-1.231-1.191-.687 3.156-5.466 1.191.688zm3.776-6.541-.308.534-1.191-.687.308-.534a.688.688 0 0 1 1.191.688z"/></g></svg>