<svg height="16.033" viewBox="0 0 13.854 16.033" width="13.854" xmlns="http://www.w3.org/2000/svg"><g fill="#2f323d"><path d="m11.083 0h-10.057a1.027 1.027 0 0 0 -1.026 1.026v3.489a.342.342 0 1 0 .684 0v-3.489a.342.342 0 0 1 .342-.342h10.057a.342.342 0 0 1 .342.342v12.725a.342.342 0 0 1 -.342.342h-10.057a.342.342 0 0 1 -.342-.342v-6.351a.342.342 0 1 0 -.684 0v6.351a1.027 1.027 0 0 0 1.026 1.026h10.057a1.027 1.027 0 0 0 1.026-1.026v-12.725a1.027 1.027 0 0 0 -1.026-1.026z"/><path d="m.584 5.766a.342.342 0 1 0 .1.242.344.344 0 0 0 -.1-.242zm1.37 9.683a.342.342 0 1 0 .1.242.344.344 0 0 0 -.1-.242zm11.559-14.079a.341.341 0 0 0 -.342.339v13.3a.341.341 0 0 1 -.342.339h-9.372a.34.34 0 1 0 0 .679h9.372a1.023 1.023 0 0 0 1.026-1.018v-13.302a.341.341 0 0 0 -.342-.337zm-7.971 1.161h-3.284a.342.342 0 0 0 -.342.342v3.284a.342.342 0 0 0 .342.342h3.284a.342.342 0 0 0 .342-.342v-3.284a.342.342 0 0 0 -.342-.342zm-.342 3.284h-2.6v-2.6h2.6zm-.762 2.179a.342.342 0 0 0 -.484 0l-.909.909-.423-.423a.342.342 0 1 0 -.484.484l.665.665a.342.342 0 0 0 .484 0l1.151-1.151a.342.342 0 0 0 0-.484z"/><path d="m9.645 8.459h-3.991a.342.342 0 1 0 0 .684h3.991a.342.342 0 1 0 0-.684zm-.224-5.928h-2.394a.342.342 0 1 0 0 .684h2.394a.342.342 0 1 0 0-.684zm0 1.614h-2.394a.342.342 0 1 0 0 .684h2.394a.342.342 0 1 0 0-.684zm0 1.63h-2.394a.342.342 0 1 0 0 .684h2.394a.342.342 0 1 0 0-.684zm-4.983 4.812a.342.342 0 0 0 -.484 0l-.909.909-.423-.423a.342.342 0 0 0 -.484.484l.665.665a.342.342 0 0 0 .484 0l1.151-1.151a.342.342 0 0 0 0-.484zm5.207.454h-3.991a.342.342 0 0 0 0 .684h3.991a.342.342 0 0 0 0-.684z"/></g></svg>