<?xml version="1.0" encoding="utf-8"?>
<!-- Generator: Adobe Illustrator 23.0.0, SVG Export Plug-In . SVG Version: 6.00 Build 0)  -->
<svg version="1.1" id="Capa_1" xmlns="http://www.w3.org/2000/svg" xmlns:xlink="http://www.w3.org/1999/xlink" x="0px" y="0px"
	 viewBox="-49 141 512 512" style="enable-background:new -49 141 512 512;" xml:space="preserve">
<style type="text/css">
	.st0{fill:#707070;}
</style>
<g>
	<path class="st0" d="M383,161h-10.8H357h-40h-91h-40H96H56h-7.8H31c-44.1,0-80,35.9-80,80v312c0,44.1,35.9,80,80,80h352
		c42.1,0,76.7-32.7,79.8-74c0.1-1,0.2-2,0.2-3V241C463,196.9,427.1,161,383,161z M423,553c0,22.1-17.9,40-40,40H31
		c-22.1,0-40-17.9-40-40V241c0-22.1,17.9-40,40-40h25v20c0,11,9,20,20,20s20-9,20-20v-20h90v20c0,11,9,20,20,20s20-9,20-20v-20h91
		v20c0,11,9,20,20,20c11,0,20-9,20-20v-20h26c22.1,0,40,17.9,40,40V553z"/>
	<circle class="st0" cx="76" cy="331" r="20"/>
	<circle class="st0" cx="250" cy="331" r="20"/>
	<circle class="st0" cx="337" cy="331" r="20"/>
	<circle class="st0" cx="76" cy="418" r="20"/>
	<circle class="st0" cx="76" cy="505" r="20"/>
	<circle class="st0" cx="163" cy="331" r="20"/>
	<circle class="st0" cx="163" cy="418" r="20"/>
	<circle class="st0" cx="163" cy="505" r="20"/>
	<circle class="st0" cx="250" cy="418" r="20"/>
	<circle class="st0" cx="337" cy="418" r="20"/>
	<circle class="st0" cx="250" cy="505" r="20"/>
</g>
</svg>
