<?xml version="1.0" encoding="utf-8"?>
<!-- Generator: Adobe Illustrator 23.0.0, SVG Export Plug-In . SVG Version: 6.00 Build 0)  -->
<svg version="1.1" id="Layer_1" xmlns="http://www.w3.org/2000/svg" xmlns:xlink="http://www.w3.org/1999/xlink" x="0px" y="0px"
	 viewBox="0 0 80 80" style="enable-background:new 0 0 80 80;" xml:space="preserve">
<style type="text/css">
	.st0{fill:#06CE99;}
	.st1{fill:#FFFFFF;}
</style>
<circle class="st0" cx="40" cy="40" r="40"/>
<path class="st1" d="M20.4,41.1c0-0.3,0.1-0.7,0.3-1c0.5-1.1,1.5-1.9,2.5-2.7c1.2-1,2.7-0.7,3.9,0.4c2.1,2.1,4.2,4.2,6.3,6.3
	c0.2,0.2,0.3,0.4,0.5,0.6c0.3-0.3,0.5-0.5,0.7-0.7c6-6,11.9-11.9,17.9-17.9c1.7-1.7,3.3-1.7,4.9,0c0.7,0.8,1.3,1.6,1.9,2.5
	c0.8,1.2,0.1,1.8-1.6,3.5c-7.3,7.4-14.7,14.7-22,22c-1.3,1.3-2.3,1.3-3.6,0c-3.4-3.4-6.9-6.8-10.2-10.3
	C20.5,42.4,20.3,41.7,20.4,41.1z"/>
</svg>
