<svg enable-background="new 0 0 512 512" viewBox="0 0 512 512" xmlns="http://www.w3.org/2000/svg"><path d="m413.809 462.904v-51.088c0-60.171-46.494-96.158-91.179-131.268-6.172-4.839-14.028-14.028-14.028-28.055s7.077-27.704 14.028-33.554c43.477-36.583 91.179-71.098 91.179-131.268v-38.575h35.068v-49.096h-385.754v49.096h35.068v38.576c0 60.171 47.7 94.685 91.179 131.268 6.951 5.85 14.028 19.526 14.028 33.554s-7.856 23.215-14.028 28.055c-44.684 35.111-91.179 71.098-91.179 131.268v51.088h-35.068v49.095h385.753v-49.096zm-246.371-329.644c-12.927-14.631-20.15-28.714-20.15-45.589v-38.575h217.424v38.576c0 16.874-7.225 30.959-20.15 45.589h-177.124zm197.274 315.961-82.572-32.227c-14.378-5.611-37.895-5.611-52.273 0l-82.579 32.229v-37.404c0-34.045 27.059-57.035 71.217-91.725l1.171-.918c16.762-13.144 27.634-31.449 31.324-51.621 3.303.736 6.698.736 10.001 0 3.675 20.165 14.56 38.471 31.301 51.6l1.192.939c44.158 34.688 71.217 57.672 71.217 91.724v37.403z"/></svg>