<svg height="106.193" viewBox="0 0 390.479 106.193" width="390.479" xmlns="http://www.w3.org/2000/svg"><circle cx="99.979" cy="92.528" fill="#ff8073" r="5.336"/><path d="m82.93 87.713a4.325 4.325 0 0 0 -4.327 4.327 4.327 4.327 0 1 0 8.654 0 4.325 4.325 0 0 0 -4.327-4.327z" fill="#ff715b"/><path d="m111.365 99.816a2.027 2.027 0 0 0 -2.017 2.017 2.017 2.017 0 1 0 4.034 0 1.986 1.986 0 0 0 -2.017-2.017z" fill="#ff897d"/><circle cx="91.683" cy="103.363" fill="#ff897d" r="2.831"/><path d="m41.221 28.337a5.32 5.32 0 0 0 1.594.163h.13a5.707 5.707 0 1 0 -2.57-.618 4.248 4.248 0 0 0 .846.455z" fill="#ff715b"/><path d="m79.775 65.785a42.954 42.954 0 0 0 -27.98-64.841 43.112 43.112 0 0 0 -19.586 83.939c-3.058-1.432-23.522-15.519-23.295-43.011.13-17.731 15.031-32.079 32.762-32.665a33.956 33.956 0 0 1 14.218 65.264c-2.6.878-11.647 2.928-19.13-7.255a27.454 27.454 0 0 1 -4.132-17.634 8.16 8.16 0 0 1 8.1-7.776 7.077 7.077 0 0 1 .813.033c4.945.423 8.134 3.807 7.906 8.426a31.152 31.152 0 0 1 -2.9 11.485l-.2.39c-.26.521-.553 1.2-.781 1.724a2.726 2.726 0 0 0 -.163 1.822 2.777 2.777 0 0 0 3.123 2.017h.033a2.777 2.777 0 0 0 1.822-1.171c3.709-5.466 6.474-11.224 6.507-18.122a14.887 14.887 0 0 0 -4.164-10.671 15.714 15.714 0 0 0 -11.322-4.425c-.293 0-.618 0-.944.033a18.261 18.261 0 0 0 -6.214 1.366 15.845 15.845 0 0 0 -10.205 13.987c-.781 6.084-.228 16.365 8.849 26.288a26.91 26.91 0 0 0 3.514 3.416 26.363 26.363 0 0 0 4.783 3.123 25.85 25.85 0 0 0 2.505 1.269.247.247 0 0 0 .13.065v-.033a22.15 22.15 0 0 0 4.976 1.372h.033a20.41 20.41 0 0 0 11.159-1.529 42.833 42.833 0 0 0 7.971-4.555l6.995 6.539a10.441 10.441 0 0 1 16.627 3.445 8 8 0 0 1 5.3-4.913z" fill="#ff715b"/><path d="m190.717 39.692c-2.115-1.789-5.01-2.668-8.589-2.668a31.818 31.818 0 0 0 -6.507.683 16.414 16.414 0 0 0 -5.271 1.952l-.228.13v5.791l.813-.651a12.11 12.11 0 0 1 4.457-2.147 20.25 20.25 0 0 1 5.3-.748c5.173 0 7.678 2.115 7.678 6.507v2.863a20.79 20.79 0 0 0 -9.3-1.854c-3.676 0-6.637.878-8.752 2.635-2.147 1.789-3.253 4.62-3.253 8.492 0 3.579 1.269 6.182 3.774 7.743a16.337 16.337 0 0 0 8.719 2.277 27.856 27.856 0 0 0 10.378-1.562c2.635-1.106 4-3.286 4-6.507v-15.128c.002-3.384-1.071-6.019-3.219-7.808zm-10.086 26a11.272 11.272 0 0 1 -5.824-1.4 5.15 5.15 0 0 1 -.325-8.264 9.952 9.952 0 0 1 5.791-1.4 23.335 23.335 0 0 1 4.587.456 18.971 18.971 0 0 1 3.546 1.106v6.67a2.1 2.1 0 0 1 -1.594 2.18 20.325 20.325 0 0 1 -6.18.647zm38.423-12.954a45.726 45.726 0 0 0 -5.043-1.822 34.718 34.718 0 0 1 -3.9-1.269 6.609 6.609 0 0 1 -2.277-1.5 3.255 3.255 0 0 1 -.846-2.31 2.944 2.944 0 0 1 1.692-2.668 8.942 8.942 0 0 1 4.457-1.041 10.756 10.756 0 0 1 3.741.586c1.074.423 2.668 1.139 4.75 2.18l.716.358v-5.628l-.293-.13c-2.017-.878-3.611-1.529-4.75-1.887a14.279 14.279 0 0 0 -4.36-.586 14.643 14.643 0 0 0 -5.433 1.009 9.666 9.666 0 0 0 -4.262 3.123 8.392 8.392 0 0 0 -1.659 5.3 7.59 7.59 0 0 0 1.594 5.075 9.136 9.136 0 0 0 3.644 2.7 52.365 52.365 0 0 0 5.531 1.822l1.627.683a13.835 13.835 0 0 1 3.608 1.891 3.021 3.021 0 0 1 1.009 2.538 3.683 3.683 0 0 1 -1.757 3.156 8.341 8.341 0 0 1 -4.815 1.3 14.238 14.238 0 0 1 -4.685-.683 31.134 31.134 0 0 1 -5.14-2.505l-.748-.423v5.921l.26.13a26.51 26.51 0 0 0 5.043 2.05 21.232 21.232 0 0 0 5.563.651 14.426 14.426 0 0 0 5.6-1.106 10.635 10.635 0 0 0 4.425-3.384 9.189 9.189 0 0 0 1.724-5.628 8.117 8.117 0 0 0 -1.5-5.075 9.468 9.468 0 0 0 -3.516-2.828zm25.086 9.406-9.533-24.564h-6.214l13.144 31.819a20.157 20.157 0 0 1 -2.668 5.563 4.508 4.508 0 0 1 -3.807 1.757 5.714 5.714 0 0 1 -2.473-.521l-.716-.325v5.238l.325.13a8.58 8.58 0 0 0 3.123.586 9.183 9.183 0 0 0 5.6-2.115c1.789-1.4 3.384-3.807 4.685-7.223l13.63-34.945h-5.563zm21.082.354h7.255v7.255h-7.255zm18.251 8.329a10.04 10.04 0 0 1 -.456 3.319 3.278 3.278 0 0 1 -1.627 1.757 8.61 8.61 0 0 1 -3.774.716h-.487v5.173h.488c3.774 0 6.637-.911 8.524-2.668 1.887-1.789 2.83-4.49 2.83-8.069v-33.511h-5.5zm-.26-44.767h5.986v5.921h-5.986zm28.175 10.931c-4.75 0-8.426 1.432-10.964 4.262-2.505 2.8-3.774 7.027-3.774 12.493 0 5.4 1.236 9.6 3.709 12.526s6.247 4.425 11.159 4.425c4.685 0 8.361-1.529 10.932-4.522 2.57-2.961 3.872-7.158 3.872-12.428 0-5.14-1.236-9.24-3.676-12.233s-6.248-4.523-11.258-4.523zm9.467 16.755c0 7.938-3.058 11.81-9.37 11.81-6.279 0-9.3-3.872-9.3-11.81 0-7.841 3.058-11.647 9.3-11.647 3.318 0 5.726.976 7.158 2.928 1.464 2.017 2.213 4.945 2.213 8.719zm26.289-16.69a20.125 20.125 0 0 0 -4.132.553 32.4 32.4 0 0 0 -3.741 1.041v-14.282h-5.5v39.562c0 4.49 4.36 6.735 13.014 6.735a15.783 15.783 0 0 0 10.574-3.839c2.961-2.57 4.49-7.125 4.555-13.6 0-5.01-1.236-9.012-3.709-11.843-2.505-2.863-6.214-4.327-11.061-4.327zm9.012 16.2c0 3.839-.716 6.9-2.147 9.11-1.366 2.115-4.034 3.221-7.873 3.221a17.58 17.58 0 0 1 -5.043-.651c-1.659-.521-1.854-1.4-1.854-2.017v-18.705a15.4 15.4 0 0 1 3.709-1.432 17.261 17.261 0 0 1 4.165-.553c3.123 0 5.336.944 6.8 2.9 1.494 1.916 2.243 4.681 2.243 8.13zm32.762 2.215a8.881 8.881 0 0 0 -3.448-2.733 45.732 45.732 0 0 0 -5.043-1.822 34.724 34.724 0 0 1 -3.9-1.269 6.607 6.607 0 0 1 -2.277-1.5 3.254 3.254 0 0 1 -.846-2.31 2.944 2.944 0 0 1 1.692-2.668 8.942 8.942 0 0 1 4.457-1.041 10.757 10.757 0 0 1 3.742.586c1.074.423 2.668 1.139 4.75 2.18l.716.358v-5.628l-.293-.13c-2.017-.878-3.611-1.529-4.75-1.887a14.278 14.278 0 0 0 -4.359-.586 14.642 14.642 0 0 0 -5.433 1.009 9.667 9.667 0 0 0 -4.262 3.123 8.392 8.392 0 0 0 -1.659 5.3 7.589 7.589 0 0 0 1.594 5.075 9.136 9.136 0 0 0 3.644 2.7 52.374 52.374 0 0 0 5.531 1.822l1.627.683a13.836 13.836 0 0 1 3.611 1.887 3.022 3.022 0 0 1 1.009 2.538 3.683 3.683 0 0 1 -1.757 3.156 8.341 8.341 0 0 1 -4.815 1.3 14.238 14.238 0 0 1 -4.685-.683 31.131 31.131 0 0 1 -5.14-2.505l-.748-.423v5.921l.26.13a26.51 26.51 0 0 0 5.043 2.05 21.231 21.231 0 0 0 5.563.651 14.426 14.426 0 0 0 5.6-1.106 10.635 10.635 0 0 0 4.425-3.384 9.189 9.189 0 0 0 1.724-5.628 8.727 8.727 0 0 0 -1.573-5.166zm-228.072-.521v-.488c.1-5.205-1.009-9.468-3.286-12.623-2.31-3.221-5.954-4.848-10.834-4.848-4.457 0-7.971 1.431-10.476 4.262-2.473 2.8-3.709 6.962-3.709 12.363 0 5.531 1.334 9.793 3.937 12.688 2.635 2.9 6.312 4.392 11 4.392a25.573 25.573 0 0 0 11.159-2.245l.293-.13v-5.824l-.748.455a19.975 19.975 0 0 1 -10.444 2.6c-3.091 0-5.5-.943-7.125-2.831-1.594-1.822-2.408-4.425-2.505-7.808 0-1.627.065-3.253.228-4.88l.033-.228c.391-2.831 1.2-4.815 2.473-5.921a8.7 8.7 0 0 1 5.921-1.789c2.7 0 4.717.683 6.051 2.017a9.088 9.088 0 0 1 2.277 5.694h-17.958v5.108h23.713z" fill="#606060"/></svg>